%FSLAX45Y45*%
G04 Gerber Fmt 4.5, Leading zero omitted, Abs format (unit mm)*
G04 Created by KiCad (PCBNEW 6.0.1-79c1e3a40b~116~ubuntu20.04.1) date 2022-02-02 21:52:59*
%MOMM*%
%LPD*%
G01*
G04 APERTURE LIST*
%TA.AperFunction,Profile*%
%ADD10C,0.100000*%
%TD*%
%ADD11C,0.200000*%
%ADD12C,0.060000*%
%ADD13C,0.100000*%
%ADD14C,0.320000*%
%ADD15C,0.350000*%
%ADD16C,0.360000*%
G04 APERTURE END LIST*
D10*
X6943711Y-4329500D02*
X6943711Y-15929789D01*
X21944000Y-4229500D02*
X7043711Y-4229500D01*
X22044000Y-15930500D02*
X22044000Y-4329500D01*
X7043711Y-16029789D02*
X21944000Y-16030500D01*
X7043711Y-4229500D02*
G75*
G03*
X6943711Y-4329500I0J-100000D01*
G01*
X22044000Y-4329500D02*
G75*
G03*
X21944000Y-4229500I-100000J0D01*
G01*
X21944000Y-16030500D02*
G75*
G03*
X22044000Y-15930500I0J100000D01*
G01*
X6943711Y-15929789D02*
G75*
G03*
X7043711Y-16029789I100000J0D01*
G01*
D11*
D12*
X7490000Y-14898500D02*
X7550000Y-14958500D01*
X7550000Y-14898500D02*
X7490000Y-14958500D01*
X7490000Y-15476500D02*
X7550000Y-15536500D01*
X7550000Y-15476500D02*
X7490000Y-15536500D01*
D13*
X7431250Y-8642500D02*
G75*
G03*
X7431250Y-8642500I-50000J0D01*
G01*
X7431250Y-9442500D02*
G75*
G03*
X7431250Y-9442500I-50000J0D01*
G01*
D14*
X7287500Y-4415000D02*
X7287500Y-4735000D01*
X7127500Y-4575000D02*
X7447500Y-4575000D01*
X7287500Y-13725000D02*
X7287500Y-14045000D01*
X7127500Y-13885000D02*
X7447500Y-13885000D01*
X14502500Y-13725000D02*
X14502500Y-14045000D01*
X14342500Y-13885000D02*
X14662500Y-13885000D01*
X21600000Y-4415000D02*
X21600000Y-4735000D01*
X21440000Y-4575000D02*
X21760000Y-4575000D01*
D15*
X9237495Y-8458745D02*
X9237495Y-8211255D01*
X8990005Y-8211255D01*
X8990005Y-8458745D01*
X9237495Y-8458745D01*
X9237495Y-13938745D02*
X9237495Y-13691255D01*
X8990005Y-13691255D01*
X8990005Y-13938745D01*
X9237495Y-13938745D01*
X13057995Y-6392245D02*
X13057995Y-6144755D01*
X12810505Y-6144755D01*
X12810505Y-6392245D01*
X13057995Y-6392245D01*
X13057995Y-8622245D02*
X13057995Y-8374755D01*
X12810505Y-8374755D01*
X12810505Y-8622245D01*
X13057995Y-8622245D01*
X18517495Y-8468745D02*
X18517495Y-8221255D01*
X18270005Y-8221255D01*
X18270005Y-8468745D01*
X18517495Y-8468745D01*
X18517495Y-13938745D02*
X18517495Y-13691255D01*
X18270005Y-13691255D01*
X18270005Y-13938745D01*
X18517495Y-13938745D01*
D16*
X20668750Y-7823000D02*
X20848750Y-7643000D01*
X20668750Y-7463000D01*
X20488750Y-7643000D01*
X20668750Y-7823000D01*
D11*
X7196330Y-16345976D02*
X7196330Y-16145976D01*
X7243949Y-16145976D01*
X7272520Y-16155500D01*
X7291568Y-16174548D01*
X7301091Y-16193595D01*
X7310615Y-16231690D01*
X7310615Y-16260262D01*
X7301091Y-16298357D01*
X7291568Y-16317405D01*
X7272520Y-16336452D01*
X7243949Y-16345976D01*
X7196330Y-16345976D01*
X7396330Y-16345976D02*
X7396330Y-16212643D01*
X7396330Y-16250738D02*
X7405853Y-16231690D01*
X7415377Y-16222167D01*
X7434425Y-16212643D01*
X7453472Y-16212643D01*
X7520139Y-16345976D02*
X7520139Y-16212643D01*
X7520139Y-16145976D02*
X7510615Y-16155500D01*
X7520139Y-16165024D01*
X7529663Y-16155500D01*
X7520139Y-16145976D01*
X7520139Y-16165024D01*
X7643949Y-16345976D02*
X7624901Y-16336452D01*
X7615377Y-16317405D01*
X7615377Y-16145976D01*
X7748711Y-16345976D02*
X7729663Y-16336452D01*
X7720139Y-16317405D01*
X7720139Y-16145976D01*
X7977282Y-16345976D02*
X7977282Y-16145976D01*
X8043949Y-16288833D01*
X8110615Y-16145976D01*
X8110615Y-16345976D01*
X8291568Y-16345976D02*
X8291568Y-16241214D01*
X8282044Y-16222167D01*
X8262996Y-16212643D01*
X8224901Y-16212643D01*
X8205853Y-16222167D01*
X8291568Y-16336452D02*
X8272520Y-16345976D01*
X8224901Y-16345976D01*
X8205853Y-16336452D01*
X8196330Y-16317405D01*
X8196330Y-16298357D01*
X8205853Y-16279309D01*
X8224901Y-16269786D01*
X8272520Y-16269786D01*
X8291568Y-16260262D01*
X8386806Y-16212643D02*
X8386806Y-16412643D01*
X8386806Y-16222167D02*
X8405853Y-16212643D01*
X8443949Y-16212643D01*
X8462996Y-16222167D01*
X8472520Y-16231690D01*
X8482044Y-16250738D01*
X8482044Y-16307881D01*
X8472520Y-16326928D01*
X8462996Y-16336452D01*
X8443949Y-16345976D01*
X8405853Y-16345976D01*
X8386806Y-16336452D01*
X8567758Y-16326928D02*
X8577282Y-16336452D01*
X8567758Y-16345976D01*
X8558234Y-16336452D01*
X8567758Y-16326928D01*
X8567758Y-16345976D01*
X8567758Y-16222167D02*
X8577282Y-16231690D01*
X8567758Y-16241214D01*
X8558234Y-16231690D01*
X8567758Y-16222167D01*
X8567758Y-16241214D01*
D12*
X6878711Y-16645500D02*
X6938711Y-16705500D01*
X6938711Y-16645500D02*
X6878711Y-16705500D01*
D11*
X7234425Y-16565976D02*
X7253472Y-16565976D01*
X7272520Y-16575500D01*
X7282044Y-16585024D01*
X7291568Y-16604071D01*
X7301091Y-16642167D01*
X7301091Y-16689786D01*
X7291568Y-16727881D01*
X7282044Y-16746928D01*
X7272520Y-16756452D01*
X7253472Y-16765976D01*
X7234425Y-16765976D01*
X7215377Y-16756452D01*
X7205853Y-16746928D01*
X7196330Y-16727881D01*
X7186806Y-16689786D01*
X7186806Y-16642167D01*
X7196330Y-16604071D01*
X7205853Y-16585024D01*
X7215377Y-16575500D01*
X7234425Y-16565976D01*
X7386806Y-16746928D02*
X7396330Y-16756452D01*
X7386806Y-16765976D01*
X7377282Y-16756452D01*
X7386806Y-16746928D01*
X7386806Y-16765976D01*
X7567758Y-16565976D02*
X7529663Y-16565976D01*
X7510615Y-16575500D01*
X7501091Y-16585024D01*
X7482044Y-16613595D01*
X7472520Y-16651690D01*
X7472520Y-16727881D01*
X7482044Y-16746928D01*
X7491568Y-16756452D01*
X7510615Y-16765976D01*
X7548711Y-16765976D01*
X7567758Y-16756452D01*
X7577282Y-16746928D01*
X7586806Y-16727881D01*
X7586806Y-16680262D01*
X7577282Y-16661214D01*
X7567758Y-16651690D01*
X7548711Y-16642167D01*
X7510615Y-16642167D01*
X7491568Y-16651690D01*
X7482044Y-16661214D01*
X7472520Y-16680262D01*
X7710615Y-16565976D02*
X7729663Y-16565976D01*
X7748711Y-16575500D01*
X7758234Y-16585024D01*
X7767758Y-16604071D01*
X7777282Y-16642167D01*
X7777282Y-16689786D01*
X7767758Y-16727881D01*
X7758234Y-16746928D01*
X7748711Y-16756452D01*
X7729663Y-16765976D01*
X7710615Y-16765976D01*
X7691568Y-16756452D01*
X7682044Y-16746928D01*
X7672520Y-16727881D01*
X7662996Y-16689786D01*
X7662996Y-16642167D01*
X7672520Y-16604071D01*
X7682044Y-16585024D01*
X7691568Y-16575500D01*
X7710615Y-16565976D01*
X7901091Y-16565976D02*
X7920139Y-16565976D01*
X7939187Y-16575500D01*
X7948711Y-16585024D01*
X7958234Y-16604071D01*
X7967758Y-16642167D01*
X7967758Y-16689786D01*
X7958234Y-16727881D01*
X7948711Y-16746928D01*
X7939187Y-16756452D01*
X7920139Y-16765976D01*
X7901091Y-16765976D01*
X7882044Y-16756452D01*
X7872520Y-16746928D01*
X7862996Y-16727881D01*
X7853472Y-16689786D01*
X7853472Y-16642167D01*
X7862996Y-16604071D01*
X7872520Y-16585024D01*
X7882044Y-16575500D01*
X7901091Y-16565976D01*
X8053472Y-16765976D02*
X8053472Y-16632643D01*
X8053472Y-16651690D02*
X8062996Y-16642167D01*
X8082044Y-16632643D01*
X8110615Y-16632643D01*
X8129663Y-16642167D01*
X8139187Y-16661214D01*
X8139187Y-16765976D01*
X8139187Y-16661214D02*
X8148711Y-16642167D01*
X8167758Y-16632643D01*
X8196330Y-16632643D01*
X8215377Y-16642167D01*
X8224901Y-16661214D01*
X8224901Y-16765976D01*
X8320139Y-16765976D02*
X8320139Y-16632643D01*
X8320139Y-16651690D02*
X8329663Y-16642167D01*
X8348711Y-16632643D01*
X8377282Y-16632643D01*
X8396330Y-16642167D01*
X8405853Y-16661214D01*
X8405853Y-16765976D01*
X8405853Y-16661214D02*
X8415377Y-16642167D01*
X8434425Y-16632643D01*
X8462996Y-16632643D01*
X8482044Y-16642167D01*
X8491568Y-16661214D01*
X8491568Y-16765976D01*
X8882044Y-16556452D02*
X8710615Y-16813595D01*
X9139187Y-16565976D02*
X9158234Y-16565976D01*
X9177282Y-16575500D01*
X9186806Y-16585024D01*
X9196330Y-16604071D01*
X9205853Y-16642167D01*
X9205853Y-16689786D01*
X9196330Y-16727881D01*
X9186806Y-16746928D01*
X9177282Y-16756452D01*
X9158234Y-16765976D01*
X9139187Y-16765976D01*
X9120139Y-16756452D01*
X9110615Y-16746928D01*
X9101092Y-16727881D01*
X9091568Y-16689786D01*
X9091568Y-16642167D01*
X9101092Y-16604071D01*
X9110615Y-16585024D01*
X9120139Y-16575500D01*
X9139187Y-16565976D01*
X9291568Y-16746928D02*
X9301092Y-16756452D01*
X9291568Y-16765976D01*
X9282044Y-16756452D01*
X9291568Y-16746928D01*
X9291568Y-16765976D01*
X9424901Y-16565976D02*
X9443949Y-16565976D01*
X9462996Y-16575500D01*
X9472520Y-16585024D01*
X9482044Y-16604071D01*
X9491568Y-16642167D01*
X9491568Y-16689786D01*
X9482044Y-16727881D01*
X9472520Y-16746928D01*
X9462996Y-16756452D01*
X9443949Y-16765976D01*
X9424901Y-16765976D01*
X9405853Y-16756452D01*
X9396330Y-16746928D01*
X9386806Y-16727881D01*
X9377282Y-16689786D01*
X9377282Y-16642167D01*
X9386806Y-16604071D01*
X9396330Y-16585024D01*
X9405853Y-16575500D01*
X9424901Y-16565976D01*
X9567758Y-16585024D02*
X9577282Y-16575500D01*
X9596330Y-16565976D01*
X9643949Y-16565976D01*
X9662996Y-16575500D01*
X9672520Y-16585024D01*
X9682044Y-16604071D01*
X9682044Y-16623119D01*
X9672520Y-16651690D01*
X9558234Y-16765976D01*
X9682044Y-16765976D01*
X9748711Y-16565976D02*
X9872520Y-16565976D01*
X9805853Y-16642167D01*
X9834425Y-16642167D01*
X9853473Y-16651690D01*
X9862996Y-16661214D01*
X9872520Y-16680262D01*
X9872520Y-16727881D01*
X9862996Y-16746928D01*
X9853473Y-16756452D01*
X9834425Y-16765976D01*
X9777282Y-16765976D01*
X9758234Y-16756452D01*
X9748711Y-16746928D01*
X10043949Y-16565976D02*
X10005853Y-16565976D01*
X9986806Y-16575500D01*
X9977282Y-16585024D01*
X9958234Y-16613595D01*
X9948711Y-16651690D01*
X9948711Y-16727881D01*
X9958234Y-16746928D01*
X9967758Y-16756452D01*
X9986806Y-16765976D01*
X10024901Y-16765976D01*
X10043949Y-16756452D01*
X10053473Y-16746928D01*
X10062996Y-16727881D01*
X10062996Y-16680262D01*
X10053473Y-16661214D01*
X10043949Y-16651690D01*
X10024901Y-16642167D01*
X9986806Y-16642167D01*
X9967758Y-16651690D01*
X9958234Y-16661214D01*
X9948711Y-16680262D01*
X10139187Y-16565976D02*
X10139187Y-16604071D01*
X10215377Y-16565976D02*
X10215377Y-16604071D01*
X10510615Y-16842167D02*
X10501092Y-16832643D01*
X10482044Y-16804071D01*
X10472520Y-16785024D01*
X10462996Y-16756452D01*
X10453473Y-16708833D01*
X10453473Y-16670738D01*
X10462996Y-16623119D01*
X10472520Y-16594548D01*
X10482044Y-16575500D01*
X10501092Y-16546928D01*
X10510615Y-16537405D01*
X10577282Y-16585024D02*
X10586806Y-16575500D01*
X10605853Y-16565976D01*
X10653473Y-16565976D01*
X10672520Y-16575500D01*
X10682044Y-16585024D01*
X10691568Y-16604071D01*
X10691568Y-16623119D01*
X10682044Y-16651690D01*
X10567758Y-16765976D01*
X10691568Y-16765976D01*
X10929663Y-16765976D02*
X10929663Y-16565976D01*
X11015377Y-16765976D02*
X11015377Y-16661214D01*
X11005853Y-16642167D01*
X10986806Y-16632643D01*
X10958234Y-16632643D01*
X10939187Y-16642167D01*
X10929663Y-16651690D01*
X11139187Y-16765976D02*
X11120139Y-16756452D01*
X11110615Y-16746928D01*
X11101092Y-16727881D01*
X11101092Y-16670738D01*
X11110615Y-16651690D01*
X11120139Y-16642167D01*
X11139187Y-16632643D01*
X11167758Y-16632643D01*
X11186806Y-16642167D01*
X11196330Y-16651690D01*
X11205853Y-16670738D01*
X11205853Y-16727881D01*
X11196330Y-16746928D01*
X11186806Y-16756452D01*
X11167758Y-16765976D01*
X11139187Y-16765976D01*
X11320139Y-16765976D02*
X11301091Y-16756452D01*
X11291568Y-16737405D01*
X11291568Y-16565976D01*
X11472520Y-16756452D02*
X11453472Y-16765976D01*
X11415377Y-16765976D01*
X11396330Y-16756452D01*
X11386806Y-16737405D01*
X11386806Y-16661214D01*
X11396330Y-16642167D01*
X11415377Y-16632643D01*
X11453472Y-16632643D01*
X11472520Y-16642167D01*
X11482044Y-16661214D01*
X11482044Y-16680262D01*
X11386806Y-16699309D01*
X11558234Y-16756452D02*
X11577282Y-16765976D01*
X11615377Y-16765976D01*
X11634425Y-16756452D01*
X11643949Y-16737405D01*
X11643949Y-16727881D01*
X11634425Y-16708833D01*
X11615377Y-16699309D01*
X11586806Y-16699309D01*
X11567758Y-16689786D01*
X11558234Y-16670738D01*
X11558234Y-16661214D01*
X11567758Y-16642167D01*
X11586806Y-16632643D01*
X11615377Y-16632643D01*
X11634425Y-16642167D01*
X11710615Y-16842167D02*
X11720139Y-16832643D01*
X11739187Y-16804071D01*
X11748710Y-16785024D01*
X11758234Y-16756452D01*
X11767758Y-16708833D01*
X11767758Y-16670738D01*
X11758234Y-16623119D01*
X11748710Y-16594548D01*
X11739187Y-16575500D01*
X11720139Y-16546928D01*
X11710615Y-16537405D01*
X12072520Y-16842167D02*
X12062996Y-16832643D01*
X12043949Y-16804071D01*
X12034425Y-16785024D01*
X12024901Y-16756452D01*
X12015377Y-16708833D01*
X12015377Y-16670738D01*
X12024901Y-16623119D01*
X12034425Y-16594548D01*
X12043949Y-16575500D01*
X12062996Y-16546928D01*
X12072520Y-16537405D01*
X12148710Y-16632643D02*
X12148710Y-16765976D01*
X12148710Y-16651690D02*
X12158234Y-16642167D01*
X12177282Y-16632643D01*
X12205853Y-16632643D01*
X12224901Y-16642167D01*
X12234425Y-16661214D01*
X12234425Y-16765976D01*
X12358234Y-16765976D02*
X12339187Y-16756452D01*
X12329663Y-16746928D01*
X12320139Y-16727881D01*
X12320139Y-16670738D01*
X12329663Y-16651690D01*
X12339187Y-16642167D01*
X12358234Y-16632643D01*
X12386806Y-16632643D01*
X12405853Y-16642167D01*
X12415377Y-16651690D01*
X12424901Y-16670738D01*
X12424901Y-16727881D01*
X12415377Y-16746928D01*
X12405853Y-16756452D01*
X12386806Y-16765976D01*
X12358234Y-16765976D01*
X12482044Y-16632643D02*
X12558234Y-16632643D01*
X12510615Y-16565976D02*
X12510615Y-16737405D01*
X12520139Y-16756452D01*
X12539187Y-16765976D01*
X12558234Y-16765976D01*
X12777282Y-16632643D02*
X12777282Y-16832643D01*
X12777282Y-16642167D02*
X12796330Y-16632643D01*
X12834425Y-16632643D01*
X12853472Y-16642167D01*
X12862996Y-16651690D01*
X12872520Y-16670738D01*
X12872520Y-16727881D01*
X12862996Y-16746928D01*
X12853472Y-16756452D01*
X12834425Y-16765976D01*
X12796330Y-16765976D01*
X12777282Y-16756452D01*
X12986806Y-16765976D02*
X12967758Y-16756452D01*
X12958234Y-16737405D01*
X12958234Y-16565976D01*
X13148710Y-16765976D02*
X13148710Y-16661214D01*
X13139187Y-16642167D01*
X13120139Y-16632643D01*
X13082044Y-16632643D01*
X13062996Y-16642167D01*
X13148710Y-16756452D02*
X13129663Y-16765976D01*
X13082044Y-16765976D01*
X13062996Y-16756452D01*
X13053472Y-16737405D01*
X13053472Y-16718357D01*
X13062996Y-16699309D01*
X13082044Y-16689786D01*
X13129663Y-16689786D01*
X13148710Y-16680262D01*
X13215377Y-16632643D02*
X13291568Y-16632643D01*
X13243949Y-16565976D02*
X13243949Y-16737405D01*
X13253472Y-16756452D01*
X13272520Y-16765976D01*
X13291568Y-16765976D01*
X13434425Y-16756452D02*
X13415377Y-16765976D01*
X13377282Y-16765976D01*
X13358234Y-16756452D01*
X13348710Y-16737405D01*
X13348710Y-16661214D01*
X13358234Y-16642167D01*
X13377282Y-16632643D01*
X13415377Y-16632643D01*
X13434425Y-16642167D01*
X13443949Y-16661214D01*
X13443949Y-16680262D01*
X13348710Y-16699309D01*
X13615377Y-16765976D02*
X13615377Y-16565976D01*
X13615377Y-16756452D02*
X13596330Y-16765976D01*
X13558234Y-16765976D01*
X13539187Y-16756452D01*
X13529663Y-16746928D01*
X13520139Y-16727881D01*
X13520139Y-16670738D01*
X13529663Y-16651690D01*
X13539187Y-16642167D01*
X13558234Y-16632643D01*
X13596330Y-16632643D01*
X13615377Y-16642167D01*
X13691568Y-16842167D02*
X13701091Y-16832643D01*
X13720139Y-16804071D01*
X13729663Y-16785024D01*
X13739187Y-16756452D01*
X13748710Y-16708833D01*
X13748710Y-16670738D01*
X13739187Y-16623119D01*
X13729663Y-16594548D01*
X13720139Y-16575500D01*
X13701091Y-16546928D01*
X13691568Y-16537405D01*
D13*
X6938711Y-16939500D02*
G75*
G03*
X6938711Y-16939500I-50000J0D01*
G01*
D11*
X7301091Y-17029976D02*
X7186806Y-17029976D01*
X7243949Y-17029976D02*
X7243949Y-16829976D01*
X7224901Y-16858548D01*
X7205853Y-16877595D01*
X7186806Y-16887119D01*
X7386806Y-17010929D02*
X7396330Y-17020452D01*
X7386806Y-17029976D01*
X7377282Y-17020452D01*
X7386806Y-17010929D01*
X7386806Y-17029976D01*
X7520139Y-16829976D02*
X7539187Y-16829976D01*
X7558234Y-16839500D01*
X7567758Y-16849024D01*
X7577282Y-16868071D01*
X7586806Y-16906167D01*
X7586806Y-16953786D01*
X7577282Y-16991881D01*
X7567758Y-17010929D01*
X7558234Y-17020452D01*
X7539187Y-17029976D01*
X7520139Y-17029976D01*
X7501091Y-17020452D01*
X7491568Y-17010929D01*
X7482044Y-16991881D01*
X7472520Y-16953786D01*
X7472520Y-16906167D01*
X7482044Y-16868071D01*
X7491568Y-16849024D01*
X7501091Y-16839500D01*
X7520139Y-16829976D01*
X7710615Y-16829976D02*
X7729663Y-16829976D01*
X7748711Y-16839500D01*
X7758234Y-16849024D01*
X7767758Y-16868071D01*
X7777282Y-16906167D01*
X7777282Y-16953786D01*
X7767758Y-16991881D01*
X7758234Y-17010929D01*
X7748711Y-17020452D01*
X7729663Y-17029976D01*
X7710615Y-17029976D01*
X7691568Y-17020452D01*
X7682044Y-17010929D01*
X7672520Y-16991881D01*
X7662996Y-16953786D01*
X7662996Y-16906167D01*
X7672520Y-16868071D01*
X7682044Y-16849024D01*
X7691568Y-16839500D01*
X7710615Y-16829976D01*
X7901091Y-16829976D02*
X7920139Y-16829976D01*
X7939187Y-16839500D01*
X7948711Y-16849024D01*
X7958234Y-16868071D01*
X7967758Y-16906167D01*
X7967758Y-16953786D01*
X7958234Y-16991881D01*
X7948711Y-17010929D01*
X7939187Y-17020452D01*
X7920139Y-17029976D01*
X7901091Y-17029976D01*
X7882044Y-17020452D01*
X7872520Y-17010929D01*
X7862996Y-16991881D01*
X7853472Y-16953786D01*
X7853472Y-16906167D01*
X7862996Y-16868071D01*
X7872520Y-16849024D01*
X7882044Y-16839500D01*
X7901091Y-16829976D01*
X8053472Y-17029976D02*
X8053472Y-16896643D01*
X8053472Y-16915690D02*
X8062996Y-16906167D01*
X8082044Y-16896643D01*
X8110615Y-16896643D01*
X8129663Y-16906167D01*
X8139187Y-16925214D01*
X8139187Y-17029976D01*
X8139187Y-16925214D02*
X8148711Y-16906167D01*
X8167758Y-16896643D01*
X8196330Y-16896643D01*
X8215377Y-16906167D01*
X8224901Y-16925214D01*
X8224901Y-17029976D01*
X8320139Y-17029976D02*
X8320139Y-16896643D01*
X8320139Y-16915690D02*
X8329663Y-16906167D01*
X8348711Y-16896643D01*
X8377282Y-16896643D01*
X8396330Y-16906167D01*
X8405853Y-16925214D01*
X8405853Y-17029976D01*
X8405853Y-16925214D02*
X8415377Y-16906167D01*
X8434425Y-16896643D01*
X8462996Y-16896643D01*
X8482044Y-16906167D01*
X8491568Y-16925214D01*
X8491568Y-17029976D01*
X8882044Y-16820452D02*
X8710615Y-17077595D01*
X9139187Y-16829976D02*
X9158234Y-16829976D01*
X9177282Y-16839500D01*
X9186806Y-16849024D01*
X9196330Y-16868071D01*
X9205853Y-16906167D01*
X9205853Y-16953786D01*
X9196330Y-16991881D01*
X9186806Y-17010929D01*
X9177282Y-17020452D01*
X9158234Y-17029976D01*
X9139187Y-17029976D01*
X9120139Y-17020452D01*
X9110615Y-17010929D01*
X9101092Y-16991881D01*
X9091568Y-16953786D01*
X9091568Y-16906167D01*
X9101092Y-16868071D01*
X9110615Y-16849024D01*
X9120139Y-16839500D01*
X9139187Y-16829976D01*
X9291568Y-17010929D02*
X9301092Y-17020452D01*
X9291568Y-17029976D01*
X9282044Y-17020452D01*
X9291568Y-17010929D01*
X9291568Y-17029976D01*
X9424901Y-16829976D02*
X9443949Y-16829976D01*
X9462996Y-16839500D01*
X9472520Y-16849024D01*
X9482044Y-16868071D01*
X9491568Y-16906167D01*
X9491568Y-16953786D01*
X9482044Y-16991881D01*
X9472520Y-17010929D01*
X9462996Y-17020452D01*
X9443949Y-17029976D01*
X9424901Y-17029976D01*
X9405853Y-17020452D01*
X9396330Y-17010929D01*
X9386806Y-16991881D01*
X9377282Y-16953786D01*
X9377282Y-16906167D01*
X9386806Y-16868071D01*
X9396330Y-16849024D01*
X9405853Y-16839500D01*
X9424901Y-16829976D01*
X9558234Y-16829976D02*
X9682044Y-16829976D01*
X9615377Y-16906167D01*
X9643949Y-16906167D01*
X9662996Y-16915690D01*
X9672520Y-16925214D01*
X9682044Y-16944262D01*
X9682044Y-16991881D01*
X9672520Y-17010929D01*
X9662996Y-17020452D01*
X9643949Y-17029976D01*
X9586806Y-17029976D01*
X9567758Y-17020452D01*
X9558234Y-17010929D01*
X9777282Y-17029976D02*
X9815377Y-17029976D01*
X9834425Y-17020452D01*
X9843949Y-17010929D01*
X9862996Y-16982357D01*
X9872520Y-16944262D01*
X9872520Y-16868071D01*
X9862996Y-16849024D01*
X9853473Y-16839500D01*
X9834425Y-16829976D01*
X9796330Y-16829976D01*
X9777282Y-16839500D01*
X9767758Y-16849024D01*
X9758234Y-16868071D01*
X9758234Y-16915690D01*
X9767758Y-16934738D01*
X9777282Y-16944262D01*
X9796330Y-16953786D01*
X9834425Y-16953786D01*
X9853473Y-16944262D01*
X9862996Y-16934738D01*
X9872520Y-16915690D01*
X10043949Y-16896643D02*
X10043949Y-17029976D01*
X9996330Y-16820452D02*
X9948711Y-16963310D01*
X10072520Y-16963310D01*
X10139187Y-16829976D02*
X10139187Y-16868071D01*
X10215377Y-16829976D02*
X10215377Y-16868071D01*
X10510615Y-17106167D02*
X10501092Y-17096643D01*
X10482044Y-17068071D01*
X10472520Y-17049024D01*
X10462996Y-17020452D01*
X10453473Y-16972833D01*
X10453473Y-16934738D01*
X10462996Y-16887119D01*
X10472520Y-16858548D01*
X10482044Y-16839500D01*
X10501092Y-16810929D01*
X10510615Y-16801405D01*
X10577282Y-16849024D02*
X10586806Y-16839500D01*
X10605853Y-16829976D01*
X10653473Y-16829976D01*
X10672520Y-16839500D01*
X10682044Y-16849024D01*
X10691568Y-16868071D01*
X10691568Y-16887119D01*
X10682044Y-16915690D01*
X10567758Y-17029976D01*
X10691568Y-17029976D01*
X10929663Y-17029976D02*
X10929663Y-16829976D01*
X11015377Y-17029976D02*
X11015377Y-16925214D01*
X11005853Y-16906167D01*
X10986806Y-16896643D01*
X10958234Y-16896643D01*
X10939187Y-16906167D01*
X10929663Y-16915690D01*
X11139187Y-17029976D02*
X11120139Y-17020452D01*
X11110615Y-17010929D01*
X11101092Y-16991881D01*
X11101092Y-16934738D01*
X11110615Y-16915690D01*
X11120139Y-16906167D01*
X11139187Y-16896643D01*
X11167758Y-16896643D01*
X11186806Y-16906167D01*
X11196330Y-16915690D01*
X11205853Y-16934738D01*
X11205853Y-16991881D01*
X11196330Y-17010929D01*
X11186806Y-17020452D01*
X11167758Y-17029976D01*
X11139187Y-17029976D01*
X11320139Y-17029976D02*
X11301091Y-17020452D01*
X11291568Y-17001405D01*
X11291568Y-16829976D01*
X11472520Y-17020452D02*
X11453472Y-17029976D01*
X11415377Y-17029976D01*
X11396330Y-17020452D01*
X11386806Y-17001405D01*
X11386806Y-16925214D01*
X11396330Y-16906167D01*
X11415377Y-16896643D01*
X11453472Y-16896643D01*
X11472520Y-16906167D01*
X11482044Y-16925214D01*
X11482044Y-16944262D01*
X11386806Y-16963310D01*
X11558234Y-17020452D02*
X11577282Y-17029976D01*
X11615377Y-17029976D01*
X11634425Y-17020452D01*
X11643949Y-17001405D01*
X11643949Y-16991881D01*
X11634425Y-16972833D01*
X11615377Y-16963310D01*
X11586806Y-16963310D01*
X11567758Y-16953786D01*
X11558234Y-16934738D01*
X11558234Y-16925214D01*
X11567758Y-16906167D01*
X11586806Y-16896643D01*
X11615377Y-16896643D01*
X11634425Y-16906167D01*
X11710615Y-17106167D02*
X11720139Y-17096643D01*
X11739187Y-17068071D01*
X11748710Y-17049024D01*
X11758234Y-17020452D01*
X11767758Y-16972833D01*
X11767758Y-16934738D01*
X11758234Y-16887119D01*
X11748710Y-16858548D01*
X11739187Y-16839500D01*
X11720139Y-16810929D01*
X11710615Y-16801405D01*
X12072520Y-17106167D02*
X12062996Y-17096643D01*
X12043949Y-17068071D01*
X12034425Y-17049024D01*
X12024901Y-17020452D01*
X12015377Y-16972833D01*
X12015377Y-16934738D01*
X12024901Y-16887119D01*
X12034425Y-16858548D01*
X12043949Y-16839500D01*
X12062996Y-16810929D01*
X12072520Y-16801405D01*
X12148710Y-16896643D02*
X12148710Y-17029976D01*
X12148710Y-16915690D02*
X12158234Y-16906167D01*
X12177282Y-16896643D01*
X12205853Y-16896643D01*
X12224901Y-16906167D01*
X12234425Y-16925214D01*
X12234425Y-17029976D01*
X12358234Y-17029976D02*
X12339187Y-17020452D01*
X12329663Y-17010929D01*
X12320139Y-16991881D01*
X12320139Y-16934738D01*
X12329663Y-16915690D01*
X12339187Y-16906167D01*
X12358234Y-16896643D01*
X12386806Y-16896643D01*
X12405853Y-16906167D01*
X12415377Y-16915690D01*
X12424901Y-16934738D01*
X12424901Y-16991881D01*
X12415377Y-17010929D01*
X12405853Y-17020452D01*
X12386806Y-17029976D01*
X12358234Y-17029976D01*
X12482044Y-16896643D02*
X12558234Y-16896643D01*
X12510615Y-16829976D02*
X12510615Y-17001405D01*
X12520139Y-17020452D01*
X12539187Y-17029976D01*
X12558234Y-17029976D01*
X12777282Y-16896643D02*
X12777282Y-17096643D01*
X12777282Y-16906167D02*
X12796330Y-16896643D01*
X12834425Y-16896643D01*
X12853472Y-16906167D01*
X12862996Y-16915690D01*
X12872520Y-16934738D01*
X12872520Y-16991881D01*
X12862996Y-17010929D01*
X12853472Y-17020452D01*
X12834425Y-17029976D01*
X12796330Y-17029976D01*
X12777282Y-17020452D01*
X12986806Y-17029976D02*
X12967758Y-17020452D01*
X12958234Y-17001405D01*
X12958234Y-16829976D01*
X13148710Y-17029976D02*
X13148710Y-16925214D01*
X13139187Y-16906167D01*
X13120139Y-16896643D01*
X13082044Y-16896643D01*
X13062996Y-16906167D01*
X13148710Y-17020452D02*
X13129663Y-17029976D01*
X13082044Y-17029976D01*
X13062996Y-17020452D01*
X13053472Y-17001405D01*
X13053472Y-16982357D01*
X13062996Y-16963310D01*
X13082044Y-16953786D01*
X13129663Y-16953786D01*
X13148710Y-16944262D01*
X13215377Y-16896643D02*
X13291568Y-16896643D01*
X13243949Y-16829976D02*
X13243949Y-17001405D01*
X13253472Y-17020452D01*
X13272520Y-17029976D01*
X13291568Y-17029976D01*
X13434425Y-17020452D02*
X13415377Y-17029976D01*
X13377282Y-17029976D01*
X13358234Y-17020452D01*
X13348710Y-17001405D01*
X13348710Y-16925214D01*
X13358234Y-16906167D01*
X13377282Y-16896643D01*
X13415377Y-16896643D01*
X13434425Y-16906167D01*
X13443949Y-16925214D01*
X13443949Y-16944262D01*
X13348710Y-16963310D01*
X13615377Y-17029976D02*
X13615377Y-16829976D01*
X13615377Y-17020452D02*
X13596330Y-17029976D01*
X13558234Y-17029976D01*
X13539187Y-17020452D01*
X13529663Y-17010929D01*
X13520139Y-16991881D01*
X13520139Y-16934738D01*
X13529663Y-16915690D01*
X13539187Y-16906167D01*
X13558234Y-16896643D01*
X13596330Y-16896643D01*
X13615377Y-16906167D01*
X13691568Y-17106167D02*
X13701091Y-17096643D01*
X13720139Y-17068071D01*
X13729663Y-17049024D01*
X13739187Y-17020452D01*
X13748710Y-16972833D01*
X13748710Y-16934738D01*
X13739187Y-16887119D01*
X13729663Y-16858548D01*
X13720139Y-16839500D01*
X13701091Y-16810929D01*
X13691568Y-16801405D01*
X6838711Y-17103500D02*
X6838711Y-17303500D01*
X6738711Y-17203500D02*
X6938711Y-17203500D01*
X7177282Y-17093976D02*
X7301091Y-17093976D01*
X7234425Y-17170167D01*
X7262996Y-17170167D01*
X7282044Y-17179690D01*
X7291568Y-17189214D01*
X7301091Y-17208262D01*
X7301091Y-17255881D01*
X7291568Y-17274929D01*
X7282044Y-17284452D01*
X7262996Y-17293976D01*
X7205853Y-17293976D01*
X7186806Y-17284452D01*
X7177282Y-17274929D01*
X7386806Y-17274929D02*
X7396330Y-17284452D01*
X7386806Y-17293976D01*
X7377282Y-17284452D01*
X7386806Y-17274929D01*
X7386806Y-17293976D01*
X7472520Y-17113024D02*
X7482044Y-17103500D01*
X7501091Y-17093976D01*
X7548711Y-17093976D01*
X7567758Y-17103500D01*
X7577282Y-17113024D01*
X7586806Y-17132071D01*
X7586806Y-17151119D01*
X7577282Y-17179690D01*
X7462996Y-17293976D01*
X7586806Y-17293976D01*
X7710615Y-17093976D02*
X7729663Y-17093976D01*
X7748711Y-17103500D01*
X7758234Y-17113024D01*
X7767758Y-17132071D01*
X7777282Y-17170167D01*
X7777282Y-17217786D01*
X7767758Y-17255881D01*
X7758234Y-17274929D01*
X7748711Y-17284452D01*
X7729663Y-17293976D01*
X7710615Y-17293976D01*
X7691568Y-17284452D01*
X7682044Y-17274929D01*
X7672520Y-17255881D01*
X7662996Y-17217786D01*
X7662996Y-17170167D01*
X7672520Y-17132071D01*
X7682044Y-17113024D01*
X7691568Y-17103500D01*
X7710615Y-17093976D01*
X7901091Y-17093976D02*
X7920139Y-17093976D01*
X7939187Y-17103500D01*
X7948711Y-17113024D01*
X7958234Y-17132071D01*
X7967758Y-17170167D01*
X7967758Y-17217786D01*
X7958234Y-17255881D01*
X7948711Y-17274929D01*
X7939187Y-17284452D01*
X7920139Y-17293976D01*
X7901091Y-17293976D01*
X7882044Y-17284452D01*
X7872520Y-17274929D01*
X7862996Y-17255881D01*
X7853472Y-17217786D01*
X7853472Y-17170167D01*
X7862996Y-17132071D01*
X7872520Y-17113024D01*
X7882044Y-17103500D01*
X7901091Y-17093976D01*
X8053472Y-17293976D02*
X8053472Y-17160643D01*
X8053472Y-17179690D02*
X8062996Y-17170167D01*
X8082044Y-17160643D01*
X8110615Y-17160643D01*
X8129663Y-17170167D01*
X8139187Y-17189214D01*
X8139187Y-17293976D01*
X8139187Y-17189214D02*
X8148711Y-17170167D01*
X8167758Y-17160643D01*
X8196330Y-17160643D01*
X8215377Y-17170167D01*
X8224901Y-17189214D01*
X8224901Y-17293976D01*
X8320139Y-17293976D02*
X8320139Y-17160643D01*
X8320139Y-17179690D02*
X8329663Y-17170167D01*
X8348711Y-17160643D01*
X8377282Y-17160643D01*
X8396330Y-17170167D01*
X8405853Y-17189214D01*
X8405853Y-17293976D01*
X8405853Y-17189214D02*
X8415377Y-17170167D01*
X8434425Y-17160643D01*
X8462996Y-17160643D01*
X8482044Y-17170167D01*
X8491568Y-17189214D01*
X8491568Y-17293976D01*
X8882044Y-17084452D02*
X8710615Y-17341595D01*
X9139187Y-17093976D02*
X9158234Y-17093976D01*
X9177282Y-17103500D01*
X9186806Y-17113024D01*
X9196330Y-17132071D01*
X9205853Y-17170167D01*
X9205853Y-17217786D01*
X9196330Y-17255881D01*
X9186806Y-17274929D01*
X9177282Y-17284452D01*
X9158234Y-17293976D01*
X9139187Y-17293976D01*
X9120139Y-17284452D01*
X9110615Y-17274929D01*
X9101092Y-17255881D01*
X9091568Y-17217786D01*
X9091568Y-17170167D01*
X9101092Y-17132071D01*
X9110615Y-17113024D01*
X9120139Y-17103500D01*
X9139187Y-17093976D01*
X9291568Y-17274929D02*
X9301092Y-17284452D01*
X9291568Y-17293976D01*
X9282044Y-17284452D01*
X9291568Y-17274929D01*
X9291568Y-17293976D01*
X9491568Y-17293976D02*
X9377282Y-17293976D01*
X9434425Y-17293976D02*
X9434425Y-17093976D01*
X9415377Y-17122548D01*
X9396330Y-17141595D01*
X9377282Y-17151119D01*
X9567758Y-17113024D02*
X9577282Y-17103500D01*
X9596330Y-17093976D01*
X9643949Y-17093976D01*
X9662996Y-17103500D01*
X9672520Y-17113024D01*
X9682044Y-17132071D01*
X9682044Y-17151119D01*
X9672520Y-17179690D01*
X9558234Y-17293976D01*
X9682044Y-17293976D01*
X9853473Y-17093976D02*
X9815377Y-17093976D01*
X9796330Y-17103500D01*
X9786806Y-17113024D01*
X9767758Y-17141595D01*
X9758234Y-17179690D01*
X9758234Y-17255881D01*
X9767758Y-17274929D01*
X9777282Y-17284452D01*
X9796330Y-17293976D01*
X9834425Y-17293976D01*
X9853473Y-17284452D01*
X9862996Y-17274929D01*
X9872520Y-17255881D01*
X9872520Y-17208262D01*
X9862996Y-17189214D01*
X9853473Y-17179690D01*
X9834425Y-17170167D01*
X9796330Y-17170167D01*
X9777282Y-17179690D01*
X9767758Y-17189214D01*
X9758234Y-17208262D01*
X9996330Y-17093976D02*
X10015377Y-17093976D01*
X10034425Y-17103500D01*
X10043949Y-17113024D01*
X10053473Y-17132071D01*
X10062996Y-17170167D01*
X10062996Y-17217786D01*
X10053473Y-17255881D01*
X10043949Y-17274929D01*
X10034425Y-17284452D01*
X10015377Y-17293976D01*
X9996330Y-17293976D01*
X9977282Y-17284452D01*
X9967758Y-17274929D01*
X9958234Y-17255881D01*
X9948711Y-17217786D01*
X9948711Y-17170167D01*
X9958234Y-17132071D01*
X9967758Y-17113024D01*
X9977282Y-17103500D01*
X9996330Y-17093976D01*
X10139187Y-17093976D02*
X10139187Y-17132071D01*
X10215377Y-17093976D02*
X10215377Y-17132071D01*
X10510615Y-17370167D02*
X10501092Y-17360643D01*
X10482044Y-17332071D01*
X10472520Y-17313024D01*
X10462996Y-17284452D01*
X10453473Y-17236833D01*
X10453473Y-17198738D01*
X10462996Y-17151119D01*
X10472520Y-17122548D01*
X10482044Y-17103500D01*
X10501092Y-17074929D01*
X10510615Y-17065405D01*
X10672520Y-17160643D02*
X10672520Y-17293976D01*
X10624901Y-17084452D02*
X10577282Y-17227310D01*
X10701092Y-17227310D01*
X10929663Y-17293976D02*
X10929663Y-17093976D01*
X11015377Y-17293976D02*
X11015377Y-17189214D01*
X11005853Y-17170167D01*
X10986806Y-17160643D01*
X10958234Y-17160643D01*
X10939187Y-17170167D01*
X10929663Y-17179690D01*
X11139187Y-17293976D02*
X11120139Y-17284452D01*
X11110615Y-17274929D01*
X11101092Y-17255881D01*
X11101092Y-17198738D01*
X11110615Y-17179690D01*
X11120139Y-17170167D01*
X11139187Y-17160643D01*
X11167758Y-17160643D01*
X11186806Y-17170167D01*
X11196330Y-17179690D01*
X11205853Y-17198738D01*
X11205853Y-17255881D01*
X11196330Y-17274929D01*
X11186806Y-17284452D01*
X11167758Y-17293976D01*
X11139187Y-17293976D01*
X11320139Y-17293976D02*
X11301091Y-17284452D01*
X11291568Y-17265405D01*
X11291568Y-17093976D01*
X11472520Y-17284452D02*
X11453472Y-17293976D01*
X11415377Y-17293976D01*
X11396330Y-17284452D01*
X11386806Y-17265405D01*
X11386806Y-17189214D01*
X11396330Y-17170167D01*
X11415377Y-17160643D01*
X11453472Y-17160643D01*
X11472520Y-17170167D01*
X11482044Y-17189214D01*
X11482044Y-17208262D01*
X11386806Y-17227310D01*
X11558234Y-17284452D02*
X11577282Y-17293976D01*
X11615377Y-17293976D01*
X11634425Y-17284452D01*
X11643949Y-17265405D01*
X11643949Y-17255881D01*
X11634425Y-17236833D01*
X11615377Y-17227310D01*
X11586806Y-17227310D01*
X11567758Y-17217786D01*
X11558234Y-17198738D01*
X11558234Y-17189214D01*
X11567758Y-17170167D01*
X11586806Y-17160643D01*
X11615377Y-17160643D01*
X11634425Y-17170167D01*
X11710615Y-17370167D02*
X11720139Y-17360643D01*
X11739187Y-17332071D01*
X11748710Y-17313024D01*
X11758234Y-17284452D01*
X11767758Y-17236833D01*
X11767758Y-17198738D01*
X11758234Y-17151119D01*
X11748710Y-17122548D01*
X11739187Y-17103500D01*
X11720139Y-17074929D01*
X11710615Y-17065405D01*
X12072520Y-17370167D02*
X12062996Y-17360643D01*
X12043949Y-17332071D01*
X12034425Y-17313024D01*
X12024901Y-17284452D01*
X12015377Y-17236833D01*
X12015377Y-17198738D01*
X12024901Y-17151119D01*
X12034425Y-17122548D01*
X12043949Y-17103500D01*
X12062996Y-17074929D01*
X12072520Y-17065405D01*
X12148710Y-17160643D02*
X12148710Y-17293976D01*
X12148710Y-17179690D02*
X12158234Y-17170167D01*
X12177282Y-17160643D01*
X12205853Y-17160643D01*
X12224901Y-17170167D01*
X12234425Y-17189214D01*
X12234425Y-17293976D01*
X12358234Y-17293976D02*
X12339187Y-17284452D01*
X12329663Y-17274929D01*
X12320139Y-17255881D01*
X12320139Y-17198738D01*
X12329663Y-17179690D01*
X12339187Y-17170167D01*
X12358234Y-17160643D01*
X12386806Y-17160643D01*
X12405853Y-17170167D01*
X12415377Y-17179690D01*
X12424901Y-17198738D01*
X12424901Y-17255881D01*
X12415377Y-17274929D01*
X12405853Y-17284452D01*
X12386806Y-17293976D01*
X12358234Y-17293976D01*
X12482044Y-17160643D02*
X12558234Y-17160643D01*
X12510615Y-17093976D02*
X12510615Y-17265405D01*
X12520139Y-17284452D01*
X12539187Y-17293976D01*
X12558234Y-17293976D01*
X12777282Y-17160643D02*
X12777282Y-17360643D01*
X12777282Y-17170167D02*
X12796330Y-17160643D01*
X12834425Y-17160643D01*
X12853472Y-17170167D01*
X12862996Y-17179690D01*
X12872520Y-17198738D01*
X12872520Y-17255881D01*
X12862996Y-17274929D01*
X12853472Y-17284452D01*
X12834425Y-17293976D01*
X12796330Y-17293976D01*
X12777282Y-17284452D01*
X12986806Y-17293976D02*
X12967758Y-17284452D01*
X12958234Y-17265405D01*
X12958234Y-17093976D01*
X13148710Y-17293976D02*
X13148710Y-17189214D01*
X13139187Y-17170167D01*
X13120139Y-17160643D01*
X13082044Y-17160643D01*
X13062996Y-17170167D01*
X13148710Y-17284452D02*
X13129663Y-17293976D01*
X13082044Y-17293976D01*
X13062996Y-17284452D01*
X13053472Y-17265405D01*
X13053472Y-17246357D01*
X13062996Y-17227310D01*
X13082044Y-17217786D01*
X13129663Y-17217786D01*
X13148710Y-17208262D01*
X13215377Y-17160643D02*
X13291568Y-17160643D01*
X13243949Y-17093976D02*
X13243949Y-17265405D01*
X13253472Y-17284452D01*
X13272520Y-17293976D01*
X13291568Y-17293976D01*
X13434425Y-17284452D02*
X13415377Y-17293976D01*
X13377282Y-17293976D01*
X13358234Y-17284452D01*
X13348710Y-17265405D01*
X13348710Y-17189214D01*
X13358234Y-17170167D01*
X13377282Y-17160643D01*
X13415377Y-17160643D01*
X13434425Y-17170167D01*
X13443949Y-17189214D01*
X13443949Y-17208262D01*
X13348710Y-17227310D01*
X13615377Y-17293976D02*
X13615377Y-17093976D01*
X13615377Y-17284452D02*
X13596330Y-17293976D01*
X13558234Y-17293976D01*
X13539187Y-17284452D01*
X13529663Y-17274929D01*
X13520139Y-17255881D01*
X13520139Y-17198738D01*
X13529663Y-17179690D01*
X13539187Y-17170167D01*
X13558234Y-17160643D01*
X13596330Y-17160643D01*
X13615377Y-17170167D01*
X13691568Y-17370167D02*
X13701091Y-17360643D01*
X13720139Y-17332071D01*
X13729663Y-17313024D01*
X13739187Y-17284452D01*
X13748710Y-17236833D01*
X13748710Y-17198738D01*
X13739187Y-17151119D01*
X13729663Y-17122548D01*
X13720139Y-17103500D01*
X13701091Y-17074929D01*
X13691568Y-17065405D01*
X6909422Y-17594211D02*
X6909422Y-17452789D01*
X6767999Y-17452789D01*
X6767999Y-17594211D01*
X6909422Y-17594211D01*
X7177282Y-17413976D02*
X7301091Y-17413976D01*
X7234425Y-17490167D01*
X7262996Y-17490167D01*
X7282044Y-17499690D01*
X7291568Y-17509214D01*
X7301091Y-17528262D01*
X7301091Y-17575881D01*
X7291568Y-17594929D01*
X7282044Y-17604452D01*
X7262996Y-17613976D01*
X7205853Y-17613976D01*
X7186806Y-17604452D01*
X7177282Y-17594929D01*
X7386806Y-17594929D02*
X7396330Y-17604452D01*
X7386806Y-17613976D01*
X7377282Y-17604452D01*
X7386806Y-17594929D01*
X7386806Y-17613976D01*
X7577282Y-17413976D02*
X7482044Y-17413976D01*
X7472520Y-17509214D01*
X7482044Y-17499690D01*
X7501091Y-17490167D01*
X7548711Y-17490167D01*
X7567758Y-17499690D01*
X7577282Y-17509214D01*
X7586806Y-17528262D01*
X7586806Y-17575881D01*
X7577282Y-17594929D01*
X7567758Y-17604452D01*
X7548711Y-17613976D01*
X7501091Y-17613976D01*
X7482044Y-17604452D01*
X7472520Y-17594929D01*
X7710615Y-17413976D02*
X7729663Y-17413976D01*
X7748711Y-17423500D01*
X7758234Y-17433024D01*
X7767758Y-17452071D01*
X7777282Y-17490167D01*
X7777282Y-17537786D01*
X7767758Y-17575881D01*
X7758234Y-17594929D01*
X7748711Y-17604452D01*
X7729663Y-17613976D01*
X7710615Y-17613976D01*
X7691568Y-17604452D01*
X7682044Y-17594929D01*
X7672520Y-17575881D01*
X7662996Y-17537786D01*
X7662996Y-17490167D01*
X7672520Y-17452071D01*
X7682044Y-17433024D01*
X7691568Y-17423500D01*
X7710615Y-17413976D01*
X7901091Y-17413976D02*
X7920139Y-17413976D01*
X7939187Y-17423500D01*
X7948711Y-17433024D01*
X7958234Y-17452071D01*
X7967758Y-17490167D01*
X7967758Y-17537786D01*
X7958234Y-17575881D01*
X7948711Y-17594929D01*
X7939187Y-17604452D01*
X7920139Y-17613976D01*
X7901091Y-17613976D01*
X7882044Y-17604452D01*
X7872520Y-17594929D01*
X7862996Y-17575881D01*
X7853472Y-17537786D01*
X7853472Y-17490167D01*
X7862996Y-17452071D01*
X7872520Y-17433024D01*
X7882044Y-17423500D01*
X7901091Y-17413976D01*
X8053472Y-17613976D02*
X8053472Y-17480643D01*
X8053472Y-17499690D02*
X8062996Y-17490167D01*
X8082044Y-17480643D01*
X8110615Y-17480643D01*
X8129663Y-17490167D01*
X8139187Y-17509214D01*
X8139187Y-17613976D01*
X8139187Y-17509214D02*
X8148711Y-17490167D01*
X8167758Y-17480643D01*
X8196330Y-17480643D01*
X8215377Y-17490167D01*
X8224901Y-17509214D01*
X8224901Y-17613976D01*
X8320139Y-17613976D02*
X8320139Y-17480643D01*
X8320139Y-17499690D02*
X8329663Y-17490167D01*
X8348711Y-17480643D01*
X8377282Y-17480643D01*
X8396330Y-17490167D01*
X8405853Y-17509214D01*
X8405853Y-17613976D01*
X8405853Y-17509214D02*
X8415377Y-17490167D01*
X8434425Y-17480643D01*
X8462996Y-17480643D01*
X8482044Y-17490167D01*
X8491568Y-17509214D01*
X8491568Y-17613976D01*
X8882044Y-17404452D02*
X8710615Y-17661595D01*
X9139187Y-17413976D02*
X9158234Y-17413976D01*
X9177282Y-17423500D01*
X9186806Y-17433024D01*
X9196330Y-17452071D01*
X9205853Y-17490167D01*
X9205853Y-17537786D01*
X9196330Y-17575881D01*
X9186806Y-17594929D01*
X9177282Y-17604452D01*
X9158234Y-17613976D01*
X9139187Y-17613976D01*
X9120139Y-17604452D01*
X9110615Y-17594929D01*
X9101092Y-17575881D01*
X9091568Y-17537786D01*
X9091568Y-17490167D01*
X9101092Y-17452071D01*
X9110615Y-17433024D01*
X9120139Y-17423500D01*
X9139187Y-17413976D01*
X9291568Y-17594929D02*
X9301092Y-17604452D01*
X9291568Y-17613976D01*
X9282044Y-17604452D01*
X9291568Y-17594929D01*
X9291568Y-17613976D01*
X9491568Y-17613976D02*
X9377282Y-17613976D01*
X9434425Y-17613976D02*
X9434425Y-17413976D01*
X9415377Y-17442548D01*
X9396330Y-17461595D01*
X9377282Y-17471119D01*
X9558234Y-17413976D02*
X9682044Y-17413976D01*
X9615377Y-17490167D01*
X9643949Y-17490167D01*
X9662996Y-17499690D01*
X9672520Y-17509214D01*
X9682044Y-17528262D01*
X9682044Y-17575881D01*
X9672520Y-17594929D01*
X9662996Y-17604452D01*
X9643949Y-17613976D01*
X9586806Y-17613976D01*
X9567758Y-17604452D01*
X9558234Y-17594929D01*
X9748711Y-17413976D02*
X9882044Y-17413976D01*
X9796330Y-17613976D01*
X9986806Y-17499690D02*
X9967758Y-17490167D01*
X9958234Y-17480643D01*
X9948711Y-17461595D01*
X9948711Y-17452071D01*
X9958234Y-17433024D01*
X9967758Y-17423500D01*
X9986806Y-17413976D01*
X10024901Y-17413976D01*
X10043949Y-17423500D01*
X10053473Y-17433024D01*
X10062996Y-17452071D01*
X10062996Y-17461595D01*
X10053473Y-17480643D01*
X10043949Y-17490167D01*
X10024901Y-17499690D01*
X9986806Y-17499690D01*
X9967758Y-17509214D01*
X9958234Y-17518738D01*
X9948711Y-17537786D01*
X9948711Y-17575881D01*
X9958234Y-17594929D01*
X9967758Y-17604452D01*
X9986806Y-17613976D01*
X10024901Y-17613976D01*
X10043949Y-17604452D01*
X10053473Y-17594929D01*
X10062996Y-17575881D01*
X10062996Y-17537786D01*
X10053473Y-17518738D01*
X10043949Y-17509214D01*
X10024901Y-17499690D01*
X10139187Y-17413976D02*
X10139187Y-17452071D01*
X10215377Y-17413976D02*
X10215377Y-17452071D01*
X10510615Y-17690167D02*
X10501092Y-17680643D01*
X10482044Y-17652071D01*
X10472520Y-17633024D01*
X10462996Y-17604452D01*
X10453473Y-17556833D01*
X10453473Y-17518738D01*
X10462996Y-17471119D01*
X10472520Y-17442548D01*
X10482044Y-17423500D01*
X10501092Y-17394929D01*
X10510615Y-17385405D01*
X10672520Y-17413976D02*
X10634425Y-17413976D01*
X10615377Y-17423500D01*
X10605853Y-17433024D01*
X10586806Y-17461595D01*
X10577282Y-17499690D01*
X10577282Y-17575881D01*
X10586806Y-17594929D01*
X10596330Y-17604452D01*
X10615377Y-17613976D01*
X10653473Y-17613976D01*
X10672520Y-17604452D01*
X10682044Y-17594929D01*
X10691568Y-17575881D01*
X10691568Y-17528262D01*
X10682044Y-17509214D01*
X10672520Y-17499690D01*
X10653473Y-17490167D01*
X10615377Y-17490167D01*
X10596330Y-17499690D01*
X10586806Y-17509214D01*
X10577282Y-17528262D01*
X10929663Y-17613976D02*
X10929663Y-17413976D01*
X11015377Y-17613976D02*
X11015377Y-17509214D01*
X11005853Y-17490167D01*
X10986806Y-17480643D01*
X10958234Y-17480643D01*
X10939187Y-17490167D01*
X10929663Y-17499690D01*
X11139187Y-17613976D02*
X11120139Y-17604452D01*
X11110615Y-17594929D01*
X11101092Y-17575881D01*
X11101092Y-17518738D01*
X11110615Y-17499690D01*
X11120139Y-17490167D01*
X11139187Y-17480643D01*
X11167758Y-17480643D01*
X11186806Y-17490167D01*
X11196330Y-17499690D01*
X11205853Y-17518738D01*
X11205853Y-17575881D01*
X11196330Y-17594929D01*
X11186806Y-17604452D01*
X11167758Y-17613976D01*
X11139187Y-17613976D01*
X11320139Y-17613976D02*
X11301091Y-17604452D01*
X11291568Y-17585405D01*
X11291568Y-17413976D01*
X11472520Y-17604452D02*
X11453472Y-17613976D01*
X11415377Y-17613976D01*
X11396330Y-17604452D01*
X11386806Y-17585405D01*
X11386806Y-17509214D01*
X11396330Y-17490167D01*
X11415377Y-17480643D01*
X11453472Y-17480643D01*
X11472520Y-17490167D01*
X11482044Y-17509214D01*
X11482044Y-17528262D01*
X11386806Y-17547310D01*
X11558234Y-17604452D02*
X11577282Y-17613976D01*
X11615377Y-17613976D01*
X11634425Y-17604452D01*
X11643949Y-17585405D01*
X11643949Y-17575881D01*
X11634425Y-17556833D01*
X11615377Y-17547310D01*
X11586806Y-17547310D01*
X11567758Y-17537786D01*
X11558234Y-17518738D01*
X11558234Y-17509214D01*
X11567758Y-17490167D01*
X11586806Y-17480643D01*
X11615377Y-17480643D01*
X11634425Y-17490167D01*
X11710615Y-17690167D02*
X11720139Y-17680643D01*
X11739187Y-17652071D01*
X11748710Y-17633024D01*
X11758234Y-17604452D01*
X11767758Y-17556833D01*
X11767758Y-17518738D01*
X11758234Y-17471119D01*
X11748710Y-17442548D01*
X11739187Y-17423500D01*
X11720139Y-17394929D01*
X11710615Y-17385405D01*
X12072520Y-17690167D02*
X12062996Y-17680643D01*
X12043949Y-17652071D01*
X12034425Y-17633024D01*
X12024901Y-17604452D01*
X12015377Y-17556833D01*
X12015377Y-17518738D01*
X12024901Y-17471119D01*
X12034425Y-17442548D01*
X12043949Y-17423500D01*
X12062996Y-17394929D01*
X12072520Y-17385405D01*
X12148710Y-17480643D02*
X12148710Y-17613976D01*
X12148710Y-17499690D02*
X12158234Y-17490167D01*
X12177282Y-17480643D01*
X12205853Y-17480643D01*
X12224901Y-17490167D01*
X12234425Y-17509214D01*
X12234425Y-17613976D01*
X12358234Y-17613976D02*
X12339187Y-17604452D01*
X12329663Y-17594929D01*
X12320139Y-17575881D01*
X12320139Y-17518738D01*
X12329663Y-17499690D01*
X12339187Y-17490167D01*
X12358234Y-17480643D01*
X12386806Y-17480643D01*
X12405853Y-17490167D01*
X12415377Y-17499690D01*
X12424901Y-17518738D01*
X12424901Y-17575881D01*
X12415377Y-17594929D01*
X12405853Y-17604452D01*
X12386806Y-17613976D01*
X12358234Y-17613976D01*
X12482044Y-17480643D02*
X12558234Y-17480643D01*
X12510615Y-17413976D02*
X12510615Y-17585405D01*
X12520139Y-17604452D01*
X12539187Y-17613976D01*
X12558234Y-17613976D01*
X12777282Y-17480643D02*
X12777282Y-17680643D01*
X12777282Y-17490167D02*
X12796330Y-17480643D01*
X12834425Y-17480643D01*
X12853472Y-17490167D01*
X12862996Y-17499690D01*
X12872520Y-17518738D01*
X12872520Y-17575881D01*
X12862996Y-17594929D01*
X12853472Y-17604452D01*
X12834425Y-17613976D01*
X12796330Y-17613976D01*
X12777282Y-17604452D01*
X12986806Y-17613976D02*
X12967758Y-17604452D01*
X12958234Y-17585405D01*
X12958234Y-17413976D01*
X13148710Y-17613976D02*
X13148710Y-17509214D01*
X13139187Y-17490167D01*
X13120139Y-17480643D01*
X13082044Y-17480643D01*
X13062996Y-17490167D01*
X13148710Y-17604452D02*
X13129663Y-17613976D01*
X13082044Y-17613976D01*
X13062996Y-17604452D01*
X13053472Y-17585405D01*
X13053472Y-17566357D01*
X13062996Y-17547310D01*
X13082044Y-17537786D01*
X13129663Y-17537786D01*
X13148710Y-17528262D01*
X13215377Y-17480643D02*
X13291568Y-17480643D01*
X13243949Y-17413976D02*
X13243949Y-17585405D01*
X13253472Y-17604452D01*
X13272520Y-17613976D01*
X13291568Y-17613976D01*
X13434425Y-17604452D02*
X13415377Y-17613976D01*
X13377282Y-17613976D01*
X13358234Y-17604452D01*
X13348710Y-17585405D01*
X13348710Y-17509214D01*
X13358234Y-17490167D01*
X13377282Y-17480643D01*
X13415377Y-17480643D01*
X13434425Y-17490167D01*
X13443949Y-17509214D01*
X13443949Y-17528262D01*
X13348710Y-17547310D01*
X13615377Y-17613976D02*
X13615377Y-17413976D01*
X13615377Y-17604452D02*
X13596330Y-17613976D01*
X13558234Y-17613976D01*
X13539187Y-17604452D01*
X13529663Y-17594929D01*
X13520139Y-17575881D01*
X13520139Y-17518738D01*
X13529663Y-17499690D01*
X13539187Y-17490167D01*
X13558234Y-17480643D01*
X13596330Y-17480643D01*
X13615377Y-17490167D01*
X13691568Y-17690167D02*
X13701091Y-17680643D01*
X13720139Y-17652071D01*
X13729663Y-17633024D01*
X13739187Y-17604452D01*
X13748710Y-17556833D01*
X13748710Y-17518738D01*
X13739187Y-17471119D01*
X13729663Y-17442548D01*
X13720139Y-17423500D01*
X13701091Y-17394929D01*
X13691568Y-17385405D01*
X6838711Y-17943500D02*
X6938711Y-17843500D01*
X6838711Y-17743500D01*
X6738711Y-17843500D01*
X6838711Y-17943500D01*
X7177282Y-17733976D02*
X7301091Y-17733976D01*
X7234425Y-17810167D01*
X7262996Y-17810167D01*
X7282044Y-17819690D01*
X7291568Y-17829214D01*
X7301091Y-17848262D01*
X7301091Y-17895881D01*
X7291568Y-17914929D01*
X7282044Y-17924452D01*
X7262996Y-17933976D01*
X7205853Y-17933976D01*
X7186806Y-17924452D01*
X7177282Y-17914929D01*
X7386806Y-17914929D02*
X7396330Y-17924452D01*
X7386806Y-17933976D01*
X7377282Y-17924452D01*
X7386806Y-17914929D01*
X7386806Y-17933976D01*
X7567758Y-17733976D02*
X7529663Y-17733976D01*
X7510615Y-17743500D01*
X7501091Y-17753024D01*
X7482044Y-17781595D01*
X7472520Y-17819690D01*
X7472520Y-17895881D01*
X7482044Y-17914929D01*
X7491568Y-17924452D01*
X7510615Y-17933976D01*
X7548711Y-17933976D01*
X7567758Y-17924452D01*
X7577282Y-17914929D01*
X7586806Y-17895881D01*
X7586806Y-17848262D01*
X7577282Y-17829214D01*
X7567758Y-17819690D01*
X7548711Y-17810167D01*
X7510615Y-17810167D01*
X7491568Y-17819690D01*
X7482044Y-17829214D01*
X7472520Y-17848262D01*
X7710615Y-17733976D02*
X7729663Y-17733976D01*
X7748711Y-17743500D01*
X7758234Y-17753024D01*
X7767758Y-17772071D01*
X7777282Y-17810167D01*
X7777282Y-17857786D01*
X7767758Y-17895881D01*
X7758234Y-17914929D01*
X7748711Y-17924452D01*
X7729663Y-17933976D01*
X7710615Y-17933976D01*
X7691568Y-17924452D01*
X7682044Y-17914929D01*
X7672520Y-17895881D01*
X7662996Y-17857786D01*
X7662996Y-17810167D01*
X7672520Y-17772071D01*
X7682044Y-17753024D01*
X7691568Y-17743500D01*
X7710615Y-17733976D01*
X7901091Y-17733976D02*
X7920139Y-17733976D01*
X7939187Y-17743500D01*
X7948711Y-17753024D01*
X7958234Y-17772071D01*
X7967758Y-17810167D01*
X7967758Y-17857786D01*
X7958234Y-17895881D01*
X7948711Y-17914929D01*
X7939187Y-17924452D01*
X7920139Y-17933976D01*
X7901091Y-17933976D01*
X7882044Y-17924452D01*
X7872520Y-17914929D01*
X7862996Y-17895881D01*
X7853472Y-17857786D01*
X7853472Y-17810167D01*
X7862996Y-17772071D01*
X7872520Y-17753024D01*
X7882044Y-17743500D01*
X7901091Y-17733976D01*
X8053472Y-17933976D02*
X8053472Y-17800643D01*
X8053472Y-17819690D02*
X8062996Y-17810167D01*
X8082044Y-17800643D01*
X8110615Y-17800643D01*
X8129663Y-17810167D01*
X8139187Y-17829214D01*
X8139187Y-17933976D01*
X8139187Y-17829214D02*
X8148711Y-17810167D01*
X8167758Y-17800643D01*
X8196330Y-17800643D01*
X8215377Y-17810167D01*
X8224901Y-17829214D01*
X8224901Y-17933976D01*
X8320139Y-17933976D02*
X8320139Y-17800643D01*
X8320139Y-17819690D02*
X8329663Y-17810167D01*
X8348711Y-17800643D01*
X8377282Y-17800643D01*
X8396330Y-17810167D01*
X8405853Y-17829214D01*
X8405853Y-17933976D01*
X8405853Y-17829214D02*
X8415377Y-17810167D01*
X8434425Y-17800643D01*
X8462996Y-17800643D01*
X8482044Y-17810167D01*
X8491568Y-17829214D01*
X8491568Y-17933976D01*
X8882044Y-17724452D02*
X8710615Y-17981595D01*
X9139187Y-17733976D02*
X9158234Y-17733976D01*
X9177282Y-17743500D01*
X9186806Y-17753024D01*
X9196330Y-17772071D01*
X9205853Y-17810167D01*
X9205853Y-17857786D01*
X9196330Y-17895881D01*
X9186806Y-17914929D01*
X9177282Y-17924452D01*
X9158234Y-17933976D01*
X9139187Y-17933976D01*
X9120139Y-17924452D01*
X9110615Y-17914929D01*
X9101092Y-17895881D01*
X9091568Y-17857786D01*
X9091568Y-17810167D01*
X9101092Y-17772071D01*
X9110615Y-17753024D01*
X9120139Y-17743500D01*
X9139187Y-17733976D01*
X9291568Y-17914929D02*
X9301092Y-17924452D01*
X9291568Y-17933976D01*
X9282044Y-17924452D01*
X9291568Y-17914929D01*
X9291568Y-17933976D01*
X9491568Y-17933976D02*
X9377282Y-17933976D01*
X9434425Y-17933976D02*
X9434425Y-17733976D01*
X9415377Y-17762548D01*
X9396330Y-17781595D01*
X9377282Y-17791119D01*
X9662996Y-17800643D02*
X9662996Y-17933976D01*
X9615377Y-17724452D02*
X9567758Y-17867310D01*
X9691568Y-17867310D01*
X9872520Y-17933976D02*
X9758234Y-17933976D01*
X9815377Y-17933976D02*
X9815377Y-17733976D01*
X9796330Y-17762548D01*
X9777282Y-17781595D01*
X9758234Y-17791119D01*
X9939187Y-17733976D02*
X10072520Y-17733976D01*
X9986806Y-17933976D01*
X10139187Y-17733976D02*
X10139187Y-17772071D01*
X10215377Y-17733976D02*
X10215377Y-17772071D01*
X10510615Y-18010167D02*
X10501092Y-18000643D01*
X10482044Y-17972071D01*
X10472520Y-17953024D01*
X10462996Y-17924452D01*
X10453473Y-17876833D01*
X10453473Y-17838738D01*
X10462996Y-17791119D01*
X10472520Y-17762548D01*
X10482044Y-17743500D01*
X10501092Y-17714929D01*
X10510615Y-17705405D01*
X10691568Y-17933976D02*
X10577282Y-17933976D01*
X10634425Y-17933976D02*
X10634425Y-17733976D01*
X10615377Y-17762548D01*
X10596330Y-17781595D01*
X10577282Y-17791119D01*
X10929663Y-17933976D02*
X10929663Y-17733976D01*
X11015377Y-17933976D02*
X11015377Y-17829214D01*
X11005853Y-17810167D01*
X10986806Y-17800643D01*
X10958234Y-17800643D01*
X10939187Y-17810167D01*
X10929663Y-17819690D01*
X11139187Y-17933976D02*
X11120139Y-17924452D01*
X11110615Y-17914929D01*
X11101092Y-17895881D01*
X11101092Y-17838738D01*
X11110615Y-17819690D01*
X11120139Y-17810167D01*
X11139187Y-17800643D01*
X11167758Y-17800643D01*
X11186806Y-17810167D01*
X11196330Y-17819690D01*
X11205853Y-17838738D01*
X11205853Y-17895881D01*
X11196330Y-17914929D01*
X11186806Y-17924452D01*
X11167758Y-17933976D01*
X11139187Y-17933976D01*
X11320139Y-17933976D02*
X11301091Y-17924452D01*
X11291568Y-17905405D01*
X11291568Y-17733976D01*
X11472520Y-17924452D02*
X11453472Y-17933976D01*
X11415377Y-17933976D01*
X11396330Y-17924452D01*
X11386806Y-17905405D01*
X11386806Y-17829214D01*
X11396330Y-17810167D01*
X11415377Y-17800643D01*
X11453472Y-17800643D01*
X11472520Y-17810167D01*
X11482044Y-17829214D01*
X11482044Y-17848262D01*
X11386806Y-17867310D01*
X11548710Y-18010167D02*
X11558234Y-18000643D01*
X11577282Y-17972071D01*
X11586806Y-17953024D01*
X11596330Y-17924452D01*
X11605853Y-17876833D01*
X11605853Y-17838738D01*
X11596330Y-17791119D01*
X11586806Y-17762548D01*
X11577282Y-17743500D01*
X11558234Y-17714929D01*
X11548710Y-17705405D01*
X11910615Y-18010167D02*
X11901091Y-18000643D01*
X11882044Y-17972071D01*
X11872520Y-17953024D01*
X11862996Y-17924452D01*
X11853472Y-17876833D01*
X11853472Y-17838738D01*
X11862996Y-17791119D01*
X11872520Y-17762548D01*
X11882044Y-17743500D01*
X11901091Y-17714929D01*
X11910615Y-17705405D01*
X11986806Y-17800643D02*
X11986806Y-17933976D01*
X11986806Y-17819690D02*
X11996330Y-17810167D01*
X12015377Y-17800643D01*
X12043949Y-17800643D01*
X12062996Y-17810167D01*
X12072520Y-17829214D01*
X12072520Y-17933976D01*
X12196330Y-17933976D02*
X12177282Y-17924452D01*
X12167758Y-17914929D01*
X12158234Y-17895881D01*
X12158234Y-17838738D01*
X12167758Y-17819690D01*
X12177282Y-17810167D01*
X12196330Y-17800643D01*
X12224901Y-17800643D01*
X12243949Y-17810167D01*
X12253472Y-17819690D01*
X12262996Y-17838738D01*
X12262996Y-17895881D01*
X12253472Y-17914929D01*
X12243949Y-17924452D01*
X12224901Y-17933976D01*
X12196330Y-17933976D01*
X12320139Y-17800643D02*
X12396330Y-17800643D01*
X12348710Y-17733976D02*
X12348710Y-17905405D01*
X12358234Y-17924452D01*
X12377282Y-17933976D01*
X12396330Y-17933976D01*
X12615377Y-17800643D02*
X12615377Y-18000643D01*
X12615377Y-17810167D02*
X12634425Y-17800643D01*
X12672520Y-17800643D01*
X12691568Y-17810167D01*
X12701091Y-17819690D01*
X12710615Y-17838738D01*
X12710615Y-17895881D01*
X12701091Y-17914929D01*
X12691568Y-17924452D01*
X12672520Y-17933976D01*
X12634425Y-17933976D01*
X12615377Y-17924452D01*
X12824901Y-17933976D02*
X12805853Y-17924452D01*
X12796330Y-17905405D01*
X12796330Y-17733976D01*
X12986806Y-17933976D02*
X12986806Y-17829214D01*
X12977282Y-17810167D01*
X12958234Y-17800643D01*
X12920139Y-17800643D01*
X12901091Y-17810167D01*
X12986806Y-17924452D02*
X12967758Y-17933976D01*
X12920139Y-17933976D01*
X12901091Y-17924452D01*
X12891568Y-17905405D01*
X12891568Y-17886357D01*
X12901091Y-17867310D01*
X12920139Y-17857786D01*
X12967758Y-17857786D01*
X12986806Y-17848262D01*
X13053472Y-17800643D02*
X13129663Y-17800643D01*
X13082044Y-17733976D02*
X13082044Y-17905405D01*
X13091568Y-17924452D01*
X13110615Y-17933976D01*
X13129663Y-17933976D01*
X13272520Y-17924452D02*
X13253472Y-17933976D01*
X13215377Y-17933976D01*
X13196330Y-17924452D01*
X13186806Y-17905405D01*
X13186806Y-17829214D01*
X13196330Y-17810167D01*
X13215377Y-17800643D01*
X13253472Y-17800643D01*
X13272520Y-17810167D01*
X13282044Y-17829214D01*
X13282044Y-17848262D01*
X13186806Y-17867310D01*
X13453472Y-17933976D02*
X13453472Y-17733976D01*
X13453472Y-17924452D02*
X13434425Y-17933976D01*
X13396330Y-17933976D01*
X13377282Y-17924452D01*
X13367758Y-17914929D01*
X13358234Y-17895881D01*
X13358234Y-17838738D01*
X13367758Y-17819690D01*
X13377282Y-17810167D01*
X13396330Y-17800643D01*
X13434425Y-17800643D01*
X13453472Y-17810167D01*
X13529663Y-18010167D02*
X13539187Y-18000643D01*
X13558234Y-17972071D01*
X13567758Y-17953024D01*
X13577282Y-17924452D01*
X13586806Y-17876833D01*
X13586806Y-17838738D01*
X13577282Y-17791119D01*
X13567758Y-17762548D01*
X13558234Y-17743500D01*
X13539187Y-17714929D01*
X13529663Y-17705405D01*
M02*
