%TF.GenerationSoftware,KiCad,Pcbnew,6.0.1-79c1e3a40b~116~ubuntu20.04.1*%
%TF.CreationDate,2022-02-02T21:52:56+02:00*%
%TF.ProjectId,OBQAS,4f425141-532e-46b6-9963-61645f706362,rev?*%
%TF.SameCoordinates,Original*%
%TF.FileFunction,Legend,Bot*%
%TF.FilePolarity,Positive*%
%FSLAX46Y46*%
G04 Gerber Fmt 4.6, Leading zero omitted, Abs format (unit mm)*
G04 Created by KiCad (PCBNEW 6.0.1-79c1e3a40b~116~ubuntu20.04.1) date 2022-02-02 21:52:56*
%MOMM*%
%LPD*%
G01*
G04 APERTURE LIST*
G04 Aperture macros list*
%AMRoundRect*
0 Rectangle with rounded corners*
0 $1 Rounding radius*
0 $2 $3 $4 $5 $6 $7 $8 $9 X,Y pos of 4 corners*
0 Add a 4 corners polygon primitive as box body*
4,1,4,$2,$3,$4,$5,$6,$7,$8,$9,$2,$3,0*
0 Add four circle primitives for the rounded corners*
1,1,$1+$1,$2,$3*
1,1,$1+$1,$4,$5*
1,1,$1+$1,$6,$7*
1,1,$1+$1,$8,$9*
0 Add four rect primitives between the rounded corners*
20,1,$1+$1,$2,$3,$4,$5,0*
20,1,$1+$1,$4,$5,$6,$7,0*
20,1,$1+$1,$6,$7,$8,$9,0*
20,1,$1+$1,$8,$9,$2,$3,0*%
G04 Aperture macros list end*
%ADD10C,0.150000*%
%ADD11C,0.120000*%
%ADD12C,3.600000*%
%ADD13O,4.000500X1.501140*%
%ADD14C,1.524000*%
%ADD15R,3.200000X3.200000*%
%ADD16O,3.200000X3.200000*%
%ADD17R,2.000000X2.000000*%
%ADD18C,2.000000*%
%ADD19RoundRect,1.500000X-1.500000X1.500000X-1.500000X-1.500000X1.500000X-1.500000X1.500000X1.500000X0*%
%ADD20C,6.000000*%
%ADD21C,3.200000*%
%ADD22RoundRect,0.250000X-0.600000X-0.725000X0.600000X-0.725000X0.600000X0.725000X-0.600000X0.725000X0*%
%ADD23O,1.700000X1.950000*%
%ADD24R,3.960000X1.980000*%
%ADD25O,3.960000X1.980000*%
%ADD26O,8.000000X3.800000*%
%ADD27C,2.400000*%
%ADD28O,2.400000X2.400000*%
%ADD29C,0.600000*%
%ADD30O,2.000000X0.900000*%
%ADD31O,1.700000X0.900000*%
%ADD32R,2.000000X1.905000*%
%ADD33O,2.000000X1.905000*%
%ADD34C,5.200000*%
%ADD35R,1.905000X2.000000*%
%ADD36O,1.905000X2.000000*%
%ADD37C,1.000000*%
%ADD38R,1.980000X3.960000*%
%ADD39O,1.980000X3.960000*%
%ADD40O,3.500000X3.500000*%
%ADD41O,3.600000X3.600000*%
%ADD42R,2.500000X4.500000*%
%ADD43O,2.500000X4.500000*%
G04 APERTURE END LIST*
D10*
X129437738Y-89952619D02*
X129532976Y-89905000D01*
X129628214Y-89809761D01*
X129771071Y-89666904D01*
X129866309Y-89619285D01*
X129961547Y-89619285D01*
X129913928Y-89857380D02*
X130009166Y-89809761D01*
X130104404Y-89714523D01*
X130152023Y-89524047D01*
X130152023Y-89190714D01*
X130104404Y-89000238D01*
X130009166Y-88905000D01*
X129913928Y-88857380D01*
X129723452Y-88857380D01*
X129628214Y-88905000D01*
X129532976Y-89000238D01*
X129485357Y-89190714D01*
X129485357Y-89524047D01*
X129532976Y-89714523D01*
X129628214Y-89809761D01*
X129723452Y-89857380D01*
X129913928Y-89857380D01*
X128913928Y-89285952D02*
X129009166Y-89238333D01*
X129056785Y-89190714D01*
X129104404Y-89095476D01*
X129104404Y-89047857D01*
X129056785Y-88952619D01*
X129009166Y-88905000D01*
X128913928Y-88857380D01*
X128723452Y-88857380D01*
X128628214Y-88905000D01*
X128580595Y-88952619D01*
X128532976Y-89047857D01*
X128532976Y-89095476D01*
X128580595Y-89190714D01*
X128628214Y-89238333D01*
X128723452Y-89285952D01*
X128913928Y-89285952D01*
X129009166Y-89333571D01*
X129056785Y-89381190D01*
X129104404Y-89476428D01*
X129104404Y-89666904D01*
X129056785Y-89762142D01*
X129009166Y-89809761D01*
X128913928Y-89857380D01*
X128723452Y-89857380D01*
X128628214Y-89809761D01*
X128580595Y-89762142D01*
X128532976Y-89666904D01*
X128532976Y-89476428D01*
X128580595Y-89381190D01*
X128628214Y-89333571D01*
X128723452Y-89285952D01*
X129437738Y-67652619D02*
X129532976Y-67605000D01*
X129628214Y-67509761D01*
X129771071Y-67366904D01*
X129866309Y-67319285D01*
X129961547Y-67319285D01*
X129913928Y-67557380D02*
X130009166Y-67509761D01*
X130104404Y-67414523D01*
X130152023Y-67224047D01*
X130152023Y-66890714D01*
X130104404Y-66700238D01*
X130009166Y-66605000D01*
X129913928Y-66557380D01*
X129723452Y-66557380D01*
X129628214Y-66605000D01*
X129532976Y-66700238D01*
X129485357Y-66890714D01*
X129485357Y-67224047D01*
X129532976Y-67414523D01*
X129628214Y-67509761D01*
X129723452Y-67557380D01*
X129913928Y-67557380D01*
X129152023Y-66557380D02*
X128485357Y-66557380D01*
X128913928Y-67557380D01*
X206782738Y-69687619D02*
X206877976Y-69640000D01*
X206973214Y-69544761D01*
X207116071Y-69401904D01*
X207211309Y-69354285D01*
X207306547Y-69354285D01*
X207258928Y-69592380D02*
X207354166Y-69544761D01*
X207449404Y-69449523D01*
X207497023Y-69259047D01*
X207497023Y-68925714D01*
X207449404Y-68735238D01*
X207354166Y-68640000D01*
X207258928Y-68592380D01*
X207068452Y-68592380D01*
X206973214Y-68640000D01*
X206877976Y-68735238D01*
X206830357Y-68925714D01*
X206830357Y-69259047D01*
X206877976Y-69449523D01*
X206973214Y-69544761D01*
X207068452Y-69592380D01*
X207258928Y-69592380D01*
X206354166Y-69592380D02*
X206163690Y-69592380D01*
X206068452Y-69544761D01*
X206020833Y-69497142D01*
X205925595Y-69354285D01*
X205877976Y-69163809D01*
X205877976Y-68782857D01*
X205925595Y-68687619D01*
X205973214Y-68640000D01*
X206068452Y-68592380D01*
X206258928Y-68592380D01*
X206354166Y-68640000D01*
X206401785Y-68687619D01*
X206449404Y-68782857D01*
X206449404Y-69020952D01*
X206401785Y-69116190D01*
X206354166Y-69163809D01*
X206258928Y-69211428D01*
X206068452Y-69211428D01*
X205973214Y-69163809D01*
X205925595Y-69116190D01*
X205877976Y-69020952D01*
D11*
X124092500Y-86765000D02*
X124092500Y-87965000D01*
X129792500Y-88405000D02*
X128592500Y-88405000D01*
X134592500Y-84365000D02*
X134592500Y-85565000D01*
X134592500Y-72295000D02*
X134592500Y-81725000D01*
X127392500Y-88405000D02*
X126192500Y-88405000D01*
X124092500Y-81965000D02*
X124092500Y-83165000D01*
X131882500Y-70335000D02*
X131882500Y-72295000D01*
X126802500Y-70335000D02*
X126802500Y-72295000D01*
X134592500Y-81965000D02*
X134592500Y-83165000D01*
X124992500Y-88405000D02*
X124092500Y-88405000D01*
X124092500Y-84365000D02*
X124092500Y-85565000D01*
X129342500Y-70335000D02*
X129342500Y-72295000D01*
X132193500Y-88405000D02*
X130992500Y-88405000D01*
X134592500Y-88405000D02*
X133392500Y-88405000D01*
X134592500Y-72295000D02*
X124092500Y-72295000D01*
X124092500Y-72295000D02*
X124092500Y-81725000D01*
X134592500Y-81725000D02*
X124092500Y-81725000D01*
X134592500Y-86765000D02*
X134592500Y-87965000D01*
X124092500Y-59665000D02*
X124092500Y-60865000D01*
X129792500Y-66105000D02*
X128592500Y-66105000D01*
X134592500Y-66105000D02*
X133392500Y-66105000D01*
X134592500Y-64465000D02*
X134592500Y-65665000D01*
X134592500Y-59425000D02*
X124092500Y-59425000D01*
X132193500Y-66105000D02*
X130992500Y-66105000D01*
X134592500Y-49995000D02*
X134592500Y-59425000D01*
X127392500Y-66105000D02*
X126192500Y-66105000D01*
X134592500Y-49995000D02*
X124092500Y-49995000D01*
X124092500Y-62065000D02*
X124092500Y-63265000D01*
X134592500Y-62065000D02*
X134592500Y-63265000D01*
X131882500Y-48035000D02*
X131882500Y-49995000D01*
X126802500Y-48035000D02*
X126802500Y-49995000D01*
X124092500Y-64465000D02*
X124092500Y-65665000D01*
X134592500Y-59665000D02*
X134592500Y-60865000D01*
X124992500Y-66105000D02*
X124092500Y-66105000D01*
X129342500Y-48035000D02*
X129342500Y-49995000D01*
X124092500Y-49995000D02*
X124092500Y-59425000D01*
X198617500Y-70140000D02*
X214757500Y-70140000D01*
X212137500Y-93890000D02*
X212137500Y-91330000D01*
X198617500Y-91330000D02*
X214757500Y-91330000D01*
X214757500Y-91330000D02*
X214757500Y-70140000D01*
X201237500Y-93890000D02*
X201237500Y-91330000D01*
X206687500Y-93890000D02*
X206687500Y-91330000D01*
X198617500Y-91330000D02*
X198617500Y-70140000D01*
%LPC*%
D12*
X91137500Y-138150000D03*
X183937500Y-83450000D03*
X183937500Y-138150000D03*
X91137500Y-83350000D03*
D13*
X98537500Y-94950000D03*
X98537500Y-92410000D03*
X98537500Y-89870000D03*
X98537500Y-87330000D03*
D14*
X204437501Y-100650000D03*
X199737501Y-112150000D03*
X199737501Y-119150000D03*
X199737501Y-100650000D03*
D15*
X181280000Y-45735000D03*
D16*
X196520000Y-45735000D03*
D17*
X132625000Y-154975000D03*
D18*
X132625000Y-147375000D03*
D19*
X74437500Y-54400000D03*
D20*
X74437500Y-61600000D03*
D21*
X145025000Y-138850000D03*
X72875000Y-138850000D03*
D22*
X192950000Y-147450000D03*
D23*
X195450000Y-147450000D03*
X197950000Y-147450000D03*
X200450000Y-147450000D03*
X202950000Y-147450000D03*
X205450000Y-147450000D03*
D24*
X213037500Y-108900000D03*
D25*
X213037500Y-103900000D03*
D14*
X194687500Y-100650000D03*
X189987500Y-112150000D03*
X189987500Y-119150000D03*
X189987500Y-100650000D03*
D26*
X97617500Y-49385000D03*
X106917500Y-49385000D03*
D17*
X140500000Y-149325000D03*
D18*
X140500000Y-154325000D03*
X140500000Y-151825000D03*
D21*
X148000000Y-157425000D03*
X148000000Y-146225000D03*
D18*
X155000000Y-154325000D03*
X155000000Y-149325000D03*
D22*
X192950000Y-154325000D03*
D23*
X195450000Y-154325000D03*
X197950000Y-154325000D03*
X200450000Y-154325000D03*
X202950000Y-154325000D03*
D27*
X215650000Y-65870000D03*
D28*
X215650000Y-96350000D03*
D29*
X75200000Y-149285000D03*
X75200000Y-155065000D03*
D30*
X75680000Y-147855000D03*
D31*
X71510000Y-156495000D03*
X71510000Y-147855000D03*
D30*
X75680000Y-156495000D03*
D32*
X87800000Y-72645000D03*
D33*
X87800000Y-75185000D03*
X87800000Y-77725000D03*
D34*
X137892500Y-59085000D03*
X167192500Y-59085000D03*
D24*
X213037500Y-124215000D03*
D25*
X213037500Y-119215000D03*
D21*
X72875000Y-45750000D03*
D22*
X211475000Y-147450000D03*
D23*
X213975000Y-147450000D03*
X216475000Y-147450000D03*
D24*
X213037500Y-139500000D03*
D25*
X213037500Y-134500000D03*
D17*
X201282323Y-49325000D03*
D18*
X206282323Y-49325000D03*
D21*
X216000000Y-45750000D03*
D14*
X199737500Y-140600000D03*
X204437500Y-129100000D03*
X204437500Y-122100000D03*
X204437500Y-140600000D03*
D35*
X95717500Y-58800000D03*
D36*
X93177500Y-58800000D03*
X90637500Y-58800000D03*
D14*
X189987500Y-140600000D03*
X194687500Y-129100000D03*
X194687500Y-122100000D03*
X194687500Y-140600000D03*
D37*
X73812500Y-86425000D03*
X73812500Y-94425000D03*
D38*
X88157500Y-49310000D03*
D39*
X83157500Y-49310000D03*
D22*
X208975000Y-154325000D03*
D23*
X211475000Y-154325000D03*
X213975000Y-154325000D03*
X216475000Y-154325000D03*
D40*
X129342500Y-84985000D03*
D35*
X131882500Y-69185000D03*
D36*
X129342500Y-69185000D03*
X126802500Y-69185000D03*
D40*
X129342500Y-62685000D03*
D35*
X131882500Y-46885000D03*
D36*
X129342500Y-46885000D03*
X126802500Y-46885000D03*
D41*
X206687500Y-76430000D03*
D42*
X201237500Y-96290000D03*
D43*
X206687500Y-96290000D03*
X212137500Y-96290000D03*
M02*
