%TF.GenerationSoftware,KiCad,Pcbnew,6.0.1-79c1e3a40b~116~ubuntu20.04.1*%
%TF.CreationDate,2022-02-02T21:52:56+02:00*%
%TF.ProjectId,OBQAS,4f425141-532e-46b6-9963-61645f706362,rev?*%
%TF.SameCoordinates,Original*%
%TF.FileFunction,Soldermask,Top*%
%TF.FilePolarity,Negative*%
%FSLAX46Y46*%
G04 Gerber Fmt 4.6, Leading zero omitted, Abs format (unit mm)*
G04 Created by KiCad (PCBNEW 6.0.1-79c1e3a40b~116~ubuntu20.04.1) date 2022-02-02 21:52:56*
%MOMM*%
%LPD*%
G01*
G04 APERTURE LIST*
G04 Aperture macros list*
%AMRoundRect*
0 Rectangle with rounded corners*
0 $1 Rounding radius*
0 $2 $3 $4 $5 $6 $7 $8 $9 X,Y pos of 4 corners*
0 Add a 4 corners polygon primitive as box body*
4,1,4,$2,$3,$4,$5,$6,$7,$8,$9,$2,$3,0*
0 Add four circle primitives for the rounded corners*
1,1,$1+$1,$2,$3*
1,1,$1+$1,$4,$5*
1,1,$1+$1,$6,$7*
1,1,$1+$1,$8,$9*
0 Add four rect primitives between the rounded corners*
20,1,$1+$1,$2,$3,$4,$5,0*
20,1,$1+$1,$4,$5,$6,$7,0*
20,1,$1+$1,$6,$7,$8,$9,0*
20,1,$1+$1,$8,$9,$2,$3,0*%
%AMFreePoly0*
4,1,22,0.550000,-0.750000,0.000000,-0.750000,0.000000,-0.745033,-0.079941,-0.743568,-0.215256,-0.701293,-0.333266,-0.622738,-0.424486,-0.514219,-0.481581,-0.384460,-0.499164,-0.250000,-0.500000,-0.250000,-0.500000,0.250000,-0.499164,0.250000,-0.499963,0.256109,-0.478152,0.396186,-0.417904,0.524511,-0.324060,0.630769,-0.204165,0.706417,-0.067858,0.745374,0.000000,0.744959,0.000000,0.750000,
0.550000,0.750000,0.550000,-0.750000,0.550000,-0.750000,$1*%
%AMFreePoly1*
4,1,20,0.000000,0.744959,0.073905,0.744508,0.209726,0.703889,0.328688,0.626782,0.421226,0.519385,0.479903,0.390333,0.500000,0.250000,0.500000,-0.250000,0.499851,-0.262216,0.476331,-0.402017,0.414519,-0.529596,0.319384,-0.634700,0.198574,-0.708877,0.061801,-0.746166,0.000000,-0.745033,0.000000,-0.750000,-0.550000,-0.750000,-0.550000,0.750000,0.000000,0.750000,0.000000,0.744959,
0.000000,0.744959,$1*%
G04 Aperture macros list end*
%ADD10C,0.100000*%
%ADD11C,2.500000*%
%ADD12RoundRect,0.250000X0.450000X-0.350000X0.450000X0.350000X-0.450000X0.350000X-0.450000X-0.350000X0*%
%ADD13C,3.600000*%
%ADD14O,4.000500X1.501140*%
%ADD15C,1.524000*%
%ADD16RoundRect,0.250000X0.475000X-0.337500X0.475000X0.337500X-0.475000X0.337500X-0.475000X-0.337500X0*%
%ADD17RoundRect,0.250000X-0.450000X0.350000X-0.450000X-0.350000X0.450000X-0.350000X0.450000X0.350000X0*%
%ADD18RoundRect,0.250000X0.350000X0.450000X-0.350000X0.450000X-0.350000X-0.450000X0.350000X-0.450000X0*%
%ADD19R,1.150000X0.600000*%
%ADD20RoundRect,0.150000X-0.587500X-0.150000X0.587500X-0.150000X0.587500X0.150000X-0.587500X0.150000X0*%
%ADD21RoundRect,0.250000X-0.350000X-0.450000X0.350000X-0.450000X0.350000X0.450000X-0.350000X0.450000X0*%
%ADD22RoundRect,0.250000X0.412500X0.650000X-0.412500X0.650000X-0.412500X-0.650000X0.412500X-0.650000X0*%
%ADD23RoundRect,0.150000X-0.512500X-0.150000X0.512500X-0.150000X0.512500X0.150000X-0.512500X0.150000X0*%
%ADD24R,3.200000X3.200000*%
%ADD25O,3.200000X3.200000*%
%ADD26RoundRect,0.249999X-0.450001X-1.425001X0.450001X-1.425001X0.450001X1.425001X-0.450001X1.425001X0*%
%ADD27RoundRect,0.250000X-0.337500X-0.475000X0.337500X-0.475000X0.337500X0.475000X-0.337500X0.475000X0*%
%ADD28R,0.900000X1.200000*%
%ADD29R,2.000000X2.000000*%
%ADD30C,2.000000*%
%ADD31RoundRect,0.150000X0.150000X-0.587500X0.150000X0.587500X-0.150000X0.587500X-0.150000X-0.587500X0*%
%ADD32RoundRect,0.250000X-0.475000X0.337500X-0.475000X-0.337500X0.475000X-0.337500X0.475000X0.337500X0*%
%ADD33RoundRect,0.250000X-0.650000X0.412500X-0.650000X-0.412500X0.650000X-0.412500X0.650000X0.412500X0*%
%ADD34RoundRect,0.250000X0.337500X0.475000X-0.337500X0.475000X-0.337500X-0.475000X0.337500X-0.475000X0*%
%ADD35RoundRect,1.500000X-1.500000X1.500000X-1.500000X-1.500000X1.500000X-1.500000X1.500000X1.500000X0*%
%ADD36C,6.000000*%
%ADD37RoundRect,0.250000X1.500000X0.550000X-1.500000X0.550000X-1.500000X-0.550000X1.500000X-0.550000X0*%
%ADD38C,3.200000*%
%ADD39RoundRect,0.250000X-0.600000X-0.725000X0.600000X-0.725000X0.600000X0.725000X-0.600000X0.725000X0*%
%ADD40O,1.700000X1.950000*%
%ADD41R,2.400000X1.500000*%
%ADD42R,3.960000X1.980000*%
%ADD43O,3.960000X1.980000*%
%ADD44C,0.306367*%
%ADD45R,0.249999X0.599999*%
%ADD46R,0.249999X0.725000*%
%ADD47C,0.289687*%
%ADD48R,0.625000X0.249999*%
%ADD49C,0.258750*%
%ADD50C,0.332306*%
%ADD51R,0.675000X0.249999*%
%ADD52R,0.599999X0.249999*%
%ADD53R,1.425001X0.375001*%
%ADD54RoundRect,0.150000X-0.825000X-0.150000X0.825000X-0.150000X0.825000X0.150000X-0.825000X0.150000X0*%
%ADD55O,8.000000X3.800000*%
%ADD56RoundRect,0.150000X-0.875000X-0.150000X0.875000X-0.150000X0.875000X0.150000X-0.875000X0.150000X0*%
%ADD57RoundRect,0.250000X-1.500000X-0.550000X1.500000X-0.550000X1.500000X0.550000X-1.500000X0.550000X0*%
%ADD58FreePoly0,180.000000*%
%ADD59R,1.000000X1.500000*%
%ADD60FreePoly1,180.000000*%
%ADD61RoundRect,0.150000X0.725000X0.150000X-0.725000X0.150000X-0.725000X-0.150000X0.725000X-0.150000X0*%
%ADD62C,2.400000*%
%ADD63O,2.400000X2.400000*%
%ADD64RoundRect,0.250000X-1.100000X0.412500X-1.100000X-0.412500X1.100000X-0.412500X1.100000X0.412500X0*%
%ADD65RoundRect,0.250000X-0.700000X1.825000X-0.700000X-1.825000X0.700000X-1.825000X0.700000X1.825000X0*%
%ADD66C,0.600000*%
%ADD67R,1.160000X0.600000*%
%ADD68R,1.160000X0.300000*%
%ADD69O,2.000000X0.900000*%
%ADD70O,1.700000X0.900000*%
%ADD71R,1.100000X0.250000*%
%ADD72R,2.000000X1.905000*%
%ADD73O,2.000000X1.905000*%
%ADD74C,5.200000*%
%ADD75R,2.000000X1.500000*%
%ADD76R,2.000000X3.800000*%
%ADD77RoundRect,0.250000X-0.412500X-0.650000X0.412500X-0.650000X0.412500X0.650000X-0.412500X0.650000X0*%
%ADD78RoundRect,0.150000X-0.725000X-0.150000X0.725000X-0.150000X0.725000X0.150000X-0.725000X0.150000X0*%
%ADD79R,1.200000X0.900000*%
%ADD80C,1.000000*%
%ADD81RoundRect,0.250000X0.650000X-0.412500X0.650000X0.412500X-0.650000X0.412500X-0.650000X-0.412500X0*%
%ADD82RoundRect,0.250000X-1.000000X1.750000X-1.000000X-1.750000X1.000000X-1.750000X1.000000X1.750000X0*%
%ADD83RoundRect,0.250000X0.450000X-0.325000X0.450000X0.325000X-0.450000X0.325000X-0.450000X-0.325000X0*%
%ADD84R,0.900000X2.000000*%
%ADD85R,2.000000X0.900000*%
%ADD86R,5.000000X5.000000*%
%ADD87R,1.905000X2.000000*%
%ADD88O,1.905000X2.000000*%
%ADD89R,1.600000X0.700000*%
%ADD90R,1.500000X1.600000*%
%ADD91R,1.500000X1.200000*%
%ADD92R,2.200000X1.200000*%
%ADD93R,1.980000X3.960000*%
%ADD94O,1.980000X3.960000*%
%ADD95O,3.500000X3.500000*%
%ADD96O,3.600000X3.600000*%
%ADD97R,2.500000X4.500000*%
%ADD98O,2.500000X4.500000*%
G04 APERTURE END LIST*
D10*
X176166501Y-61560001D02*
X176041500Y-61560001D01*
X176041500Y-61560001D02*
X175991500Y-61510001D01*
X175991500Y-61510001D02*
X175991500Y-60909999D01*
X175991500Y-60909999D02*
X176041500Y-60860000D01*
X176041500Y-60860000D02*
X176516501Y-60860000D01*
X176516501Y-60860000D02*
X176566500Y-60909999D01*
X176566500Y-60909999D02*
X176566500Y-61159999D01*
X176566500Y-61159999D02*
X176516501Y-61209999D01*
X176516501Y-61209999D02*
X176216501Y-61209999D01*
X176216501Y-61209999D02*
X176216499Y-61510001D01*
X176216499Y-61510001D02*
X176166501Y-61560001D01*
G36*
X176566500Y-60909999D02*
G01*
X176566500Y-61159999D01*
X176516501Y-61209999D01*
X176216501Y-61209999D01*
X176216499Y-61510001D01*
X176166501Y-61560001D01*
X176041500Y-61560001D01*
X175991500Y-61510001D01*
X175991500Y-60909999D01*
X176041500Y-60860000D01*
X176516501Y-60860000D01*
X176566500Y-60909999D01*
G37*
X176566500Y-60909999D02*
X176566500Y-61159999D01*
X176516501Y-61209999D01*
X176216501Y-61209999D01*
X176216499Y-61510001D01*
X176166501Y-61560001D01*
X176041500Y-61560001D01*
X175991500Y-61510001D01*
X175991500Y-60909999D01*
X176041500Y-60860000D01*
X176516501Y-60860000D01*
X176566500Y-60909999D01*
X173192499Y-57159999D02*
X173192499Y-57160002D01*
X173192499Y-57160002D02*
X173242501Y-57209999D01*
X173242501Y-57209999D02*
X173242501Y-57884999D01*
X173242501Y-57884999D02*
X173192499Y-57934999D01*
X173192499Y-57934999D02*
X172717501Y-57935002D01*
X172717501Y-57935002D02*
X172667501Y-57884999D01*
X172667501Y-57884999D02*
X172667499Y-57585000D01*
X172667499Y-57585000D02*
X172717501Y-57535000D01*
X172717501Y-57535000D02*
X173017501Y-57535000D01*
X173017501Y-57535000D02*
X173017501Y-57209999D01*
X173017501Y-57209999D02*
X173067501Y-57159999D01*
X173067501Y-57159999D02*
X173192499Y-57159999D01*
G36*
X173192499Y-57160002D02*
G01*
X173242501Y-57209999D01*
X173242501Y-57884999D01*
X173192499Y-57934999D01*
X172717501Y-57935002D01*
X172667501Y-57884999D01*
X172667499Y-57585000D01*
X172717501Y-57535000D01*
X173017501Y-57535000D01*
X173017501Y-57209999D01*
X173067501Y-57159999D01*
X173192499Y-57159999D01*
X173192499Y-57160002D01*
G37*
X173192499Y-57160002D02*
X173242501Y-57209999D01*
X173242501Y-57884999D01*
X173192499Y-57934999D01*
X172717501Y-57935002D01*
X172667501Y-57884999D01*
X172667499Y-57585000D01*
X172717501Y-57535000D01*
X173017501Y-57535000D01*
X173017501Y-57209999D01*
X173067501Y-57159999D01*
X173192499Y-57159999D01*
X173192499Y-57160002D01*
X176166501Y-57159999D02*
X176216499Y-57209999D01*
X176216499Y-57209999D02*
X176216501Y-57510001D01*
X176216501Y-57510001D02*
X176516501Y-57510001D01*
X176516501Y-57510001D02*
X176566500Y-57560001D01*
X176566500Y-57560001D02*
X176566500Y-57810001D01*
X176566500Y-57810001D02*
X176516501Y-57860000D01*
X176516501Y-57860000D02*
X176041500Y-57860000D01*
X176041500Y-57860000D02*
X175991500Y-57810001D01*
X175991500Y-57810001D02*
X175991498Y-57209999D01*
X175991498Y-57209999D02*
X176041500Y-57159999D01*
X176041500Y-57159999D02*
X176166501Y-57159999D01*
G36*
X176216499Y-57209999D02*
G01*
X176216501Y-57510001D01*
X176516501Y-57510001D01*
X176566500Y-57560001D01*
X176566500Y-57810001D01*
X176516501Y-57860000D01*
X176041500Y-57860000D01*
X175991500Y-57810001D01*
X175991498Y-57209999D01*
X176041500Y-57159999D01*
X176166501Y-57159999D01*
X176216499Y-57209999D01*
G37*
X176216499Y-57209999D02*
X176216501Y-57510001D01*
X176516501Y-57510001D01*
X176566500Y-57560001D01*
X176566500Y-57810001D01*
X176516501Y-57860000D01*
X176041500Y-57860000D01*
X175991500Y-57810001D01*
X175991498Y-57209999D01*
X176041500Y-57159999D01*
X176166501Y-57159999D01*
X176216499Y-57209999D01*
X173192499Y-61560001D02*
X173067501Y-61560001D01*
X173067501Y-61560001D02*
X173017501Y-61510001D01*
X173017501Y-61510001D02*
X173017501Y-61185000D01*
X173017501Y-61185000D02*
X172717501Y-61185000D01*
X172717501Y-61185000D02*
X172667499Y-61135000D01*
X172667499Y-61135000D02*
X172667501Y-60835001D01*
X172667501Y-60835001D02*
X172717501Y-60785001D01*
X172717501Y-60785001D02*
X173192499Y-60785001D01*
X173192499Y-60785001D02*
X173242499Y-60835001D01*
X173242499Y-60835001D02*
X173242499Y-61510001D01*
X173242499Y-61510001D02*
X173192499Y-61560001D01*
G36*
X173242499Y-60835001D02*
G01*
X173242499Y-61510001D01*
X173192499Y-61560001D01*
X173067501Y-61560001D01*
X173017501Y-61510001D01*
X173017501Y-61185000D01*
X172717501Y-61185000D01*
X172667499Y-61135000D01*
X172667501Y-60835001D01*
X172717501Y-60785001D01*
X173192499Y-60785001D01*
X173242499Y-60835001D01*
G37*
X173242499Y-60835001D02*
X173242499Y-61510001D01*
X173192499Y-61560001D01*
X173067501Y-61560001D01*
X173017501Y-61510001D01*
X173017501Y-61185000D01*
X172717501Y-61185000D01*
X172667499Y-61135000D01*
X172667501Y-60835001D01*
X172717501Y-60785001D01*
X173192499Y-60785001D01*
X173242499Y-60835001D01*
D11*
X118237500Y-103575000D03*
D12*
X162825000Y-155375000D03*
X162825000Y-153375000D03*
D13*
X91137500Y-138150000D03*
X183937500Y-83450000D03*
X183937500Y-138150000D03*
X91137500Y-83350000D03*
D14*
X98537500Y-94950000D03*
X98537500Y-92410000D03*
X98537500Y-89870000D03*
X98537500Y-87330000D03*
D15*
X204437501Y-100650000D03*
X199737501Y-112150000D03*
X199737501Y-119150000D03*
X199737501Y-100650000D03*
D16*
X102875000Y-81900000D03*
X102875000Y-79825000D03*
D17*
X171950000Y-127425000D03*
X171950000Y-129425000D03*
D18*
X170080000Y-127525000D03*
X168080000Y-127525000D03*
D19*
X173490000Y-149445000D03*
X173490000Y-150395000D03*
X173490000Y-151345000D03*
X175990000Y-151345000D03*
X175990000Y-150395000D03*
X175990000Y-149445000D03*
D20*
X113487500Y-99100000D03*
X113487500Y-101000000D03*
X115362500Y-100050000D03*
D21*
X184560000Y-129145000D03*
X186560000Y-129145000D03*
D22*
X80637500Y-70600000D03*
X77512500Y-70600000D03*
D11*
X101975000Y-154800000D03*
D23*
X77475000Y-74950000D03*
X77475000Y-75900000D03*
X77475000Y-76850000D03*
X79750000Y-76850000D03*
X79750000Y-75900000D03*
X79750000Y-74950000D03*
D20*
X169952500Y-142395000D03*
X169952500Y-144295000D03*
X171827500Y-143345000D03*
D24*
X181280000Y-45735000D03*
D25*
X196520000Y-45735000D03*
D26*
X181950000Y-146055000D03*
X188050000Y-146055000D03*
D17*
X159650000Y-145000000D03*
X159650000Y-147000000D03*
D27*
X173992500Y-79585000D03*
X176067500Y-79585000D03*
D17*
X91100000Y-130675000D03*
X91100000Y-132675000D03*
X182437500Y-50500000D03*
X182437500Y-52500000D03*
D28*
X80575000Y-72975000D03*
X77275000Y-72975000D03*
D29*
X132625000Y-154975000D03*
D30*
X132625000Y-147375000D03*
D31*
X162162500Y-105187500D03*
X164062500Y-105187500D03*
X163112500Y-103312500D03*
D32*
X167550000Y-146137500D03*
X167550000Y-148212500D03*
X169600000Y-157175000D03*
X169600000Y-159250000D03*
D33*
X100025000Y-58712500D03*
X100025000Y-61837500D03*
D21*
X158387500Y-105575000D03*
X160387500Y-105575000D03*
D12*
X182937500Y-99350000D03*
X182937500Y-97350000D03*
D18*
X182987500Y-90950000D03*
X180987500Y-90950000D03*
D26*
X181950000Y-157935000D03*
X188050000Y-157935000D03*
D20*
X177982500Y-149450000D03*
X177982500Y-151350000D03*
X179857500Y-150400000D03*
D34*
X178412500Y-48600000D03*
X176337500Y-48600000D03*
D18*
X182790000Y-129145000D03*
X180790000Y-129145000D03*
D21*
X184620000Y-112195000D03*
X186620000Y-112195000D03*
D12*
X180437500Y-52500000D03*
X180437500Y-50500000D03*
D18*
X168087500Y-121500000D03*
X166087500Y-121500000D03*
D32*
X171337500Y-53825000D03*
X171337500Y-55900000D03*
D12*
X157625000Y-150525000D03*
X157625000Y-148525000D03*
D35*
X74437500Y-54400000D03*
D36*
X74437500Y-61600000D03*
D12*
X162825000Y-151550000D03*
X162825000Y-149550000D03*
D31*
X154662500Y-138525000D03*
X156562500Y-138525000D03*
X155612500Y-136650000D03*
D37*
X98937500Y-75100000D03*
X93337500Y-75100000D03*
D21*
X79150000Y-78625000D03*
X81150000Y-78625000D03*
D16*
X171217500Y-63812500D03*
X171217500Y-61737500D03*
D38*
X145025000Y-138850000D03*
D26*
X188687500Y-57700000D03*
X194787500Y-57700000D03*
D11*
X188970000Y-52105000D03*
D21*
X177137500Y-88500000D03*
X179137500Y-88500000D03*
D20*
X113475000Y-102625000D03*
X113475000Y-104525000D03*
X115350000Y-103575000D03*
D38*
X72875000Y-138850000D03*
D18*
X81550000Y-80825000D03*
X79550000Y-80825000D03*
D39*
X192950000Y-147450000D03*
D40*
X195450000Y-147450000D03*
X197950000Y-147450000D03*
X200450000Y-147450000D03*
X202950000Y-147450000D03*
X205450000Y-147450000D03*
D12*
X178337500Y-126800000D03*
X178337500Y-124800000D03*
D41*
X73100000Y-71100000D03*
X73100000Y-76600000D03*
D42*
X213037500Y-108900000D03*
D43*
X213037500Y-103900000D03*
D15*
X194687500Y-100650000D03*
X189987500Y-112150000D03*
X189987500Y-119150000D03*
X189987500Y-100650000D03*
D19*
X173490000Y-145875000D03*
X173490000Y-146825000D03*
X173490000Y-147775000D03*
X175990000Y-147775000D03*
X175990000Y-146825000D03*
X175990000Y-145875000D03*
D34*
X174212500Y-109050000D03*
X172137500Y-109050000D03*
D44*
X173062812Y-61020939D03*
D45*
X173617499Y-61259999D03*
D46*
X174117501Y-61197500D03*
X174617500Y-61197500D03*
X175117499Y-61197500D03*
D45*
X175617501Y-61259999D03*
D47*
X176171188Y-61020939D03*
D48*
X176255000Y-60484999D03*
X176255000Y-59985000D03*
X176255000Y-59485001D03*
X176255000Y-58735000D03*
X176255000Y-58235001D03*
D49*
X176422749Y-57716249D03*
D45*
X175617501Y-57460001D03*
D46*
X175117499Y-57522500D03*
X174617500Y-57522500D03*
X174117501Y-57522500D03*
D45*
X173617499Y-57460001D03*
D50*
X173026876Y-57719376D03*
D51*
X173004999Y-58310000D03*
D52*
X172967501Y-59110000D03*
X172967501Y-59610000D03*
D51*
X173004999Y-60410000D03*
D53*
X174617500Y-59985000D03*
X174617500Y-59360000D03*
X174617500Y-58735000D03*
D26*
X173860000Y-143145000D03*
X179960000Y-143145000D03*
D21*
X88475000Y-95900000D03*
X90475000Y-95900000D03*
D33*
X186437500Y-57800000D03*
X186437500Y-60925000D03*
D11*
X91325000Y-154800000D03*
D54*
X101162500Y-98480000D03*
X101162500Y-99750000D03*
X101162500Y-101020000D03*
X101162500Y-102290000D03*
X101162500Y-103560000D03*
X101162500Y-104830000D03*
X101162500Y-106100000D03*
X101162500Y-107370000D03*
X106112500Y-107370000D03*
X106112500Y-106100000D03*
X106112500Y-104830000D03*
X106112500Y-103560000D03*
X106112500Y-102290000D03*
X106112500Y-101020000D03*
X106112500Y-99750000D03*
X106112500Y-98480000D03*
D55*
X97617500Y-49385000D03*
X106917500Y-49385000D03*
D29*
X140500000Y-149325000D03*
D30*
X140500000Y-154325000D03*
X140500000Y-151825000D03*
D38*
X148000000Y-157425000D03*
X148000000Y-146225000D03*
D30*
X155000000Y-154325000D03*
X155000000Y-149325000D03*
D56*
X108150000Y-146055000D03*
X108150000Y-147325000D03*
X108150000Y-148595000D03*
X108150000Y-149865000D03*
X108150000Y-151135000D03*
X108150000Y-152405000D03*
X108150000Y-153675000D03*
X108150000Y-154945000D03*
X117450000Y-154945000D03*
X117450000Y-153675000D03*
X117450000Y-152405000D03*
X117450000Y-151135000D03*
X117450000Y-149865000D03*
X117450000Y-148595000D03*
X117450000Y-147325000D03*
X117450000Y-146055000D03*
D12*
X171625000Y-157625000D03*
X171625000Y-155625000D03*
D17*
X163700000Y-143350000D03*
X163700000Y-145350000D03*
D11*
X98425000Y-154800000D03*
D18*
X172975000Y-69200000D03*
X170975000Y-69200000D03*
D11*
X132225000Y-57850000D03*
D17*
X170487500Y-115800000D03*
X170487500Y-117800000D03*
D16*
X98812500Y-101312500D03*
X98812500Y-99237500D03*
D17*
X164825000Y-153375000D03*
X164825000Y-155375000D03*
D31*
X162112500Y-112706250D03*
X164012500Y-112706250D03*
X163062500Y-110831250D03*
D21*
X180937500Y-95400000D03*
X182937500Y-95400000D03*
X88462500Y-87325000D03*
X90462500Y-87325000D03*
D11*
X173625000Y-48550000D03*
D19*
X165560000Y-142395000D03*
X165560000Y-143345000D03*
X165560000Y-144295000D03*
X168060000Y-144295000D03*
X168060000Y-143345000D03*
X168060000Y-142395000D03*
D18*
X164187500Y-107425000D03*
X162187500Y-107425000D03*
D57*
X188850000Y-93525000D03*
X194450000Y-93525000D03*
D58*
X180437500Y-65842500D03*
D59*
X179137500Y-65842500D03*
D60*
X177837500Y-65842500D03*
D28*
X157137500Y-103300000D03*
X160437500Y-103300000D03*
D39*
X192950000Y-154325000D03*
D40*
X195450000Y-154325000D03*
X197950000Y-154325000D03*
X200450000Y-154325000D03*
X202950000Y-154325000D03*
D11*
X77160000Y-130755000D03*
D21*
X153975000Y-143125000D03*
X155975000Y-143125000D03*
D26*
X181950000Y-153985000D03*
X188050000Y-153985000D03*
D22*
X110325000Y-82875000D03*
X107200000Y-82875000D03*
D21*
X180937500Y-93250000D03*
X182937500Y-93250000D03*
D61*
X175662500Y-123455000D03*
X175662500Y-122185000D03*
X175662500Y-120915000D03*
X175662500Y-119645000D03*
X170512500Y-119645000D03*
X170512500Y-120915000D03*
X170512500Y-122185000D03*
X170512500Y-123455000D03*
D62*
X215650000Y-65870000D03*
D63*
X215650000Y-96350000D03*
D18*
X168662500Y-140600000D03*
X166662500Y-140600000D03*
D64*
X183537500Y-57837500D03*
X183537500Y-60962500D03*
D65*
X116790000Y-55620000D03*
X116790000Y-62570000D03*
D28*
X149812500Y-136650000D03*
X153112500Y-136650000D03*
D16*
X176437500Y-52600000D03*
X176437500Y-50525000D03*
D19*
X173500000Y-156985000D03*
X173500000Y-157935000D03*
X173500000Y-158885000D03*
X176000000Y-158885000D03*
X176000000Y-157935000D03*
X176000000Y-156985000D03*
D66*
X75200000Y-149285000D03*
X75200000Y-155065000D03*
D67*
X76260000Y-148975000D03*
X76260000Y-149775000D03*
D68*
X76260000Y-150925000D03*
X76260000Y-151925000D03*
X76260000Y-152425000D03*
X76260000Y-153425000D03*
D67*
X76260000Y-154575000D03*
X76260000Y-155375000D03*
X76260000Y-155375000D03*
X76260000Y-154575000D03*
D68*
X76260000Y-153925000D03*
X76260000Y-152925000D03*
X76260000Y-151425000D03*
X76260000Y-150425000D03*
D67*
X76260000Y-149775000D03*
X76260000Y-148975000D03*
D69*
X75680000Y-147855000D03*
D70*
X71510000Y-156495000D03*
X71510000Y-147855000D03*
D69*
X75680000Y-156495000D03*
D31*
X166712500Y-138500000D03*
X168612500Y-138500000D03*
X167662500Y-136625000D03*
D12*
X98837500Y-107150000D03*
X98837500Y-105150000D03*
D22*
X174442500Y-51635000D03*
X171317500Y-51635000D03*
D18*
X164187500Y-114943750D03*
X162187500Y-114943750D03*
D71*
X172037500Y-111300000D03*
X172037500Y-111800000D03*
X172037500Y-112300000D03*
X172037500Y-112800000D03*
X172037500Y-113300000D03*
X176337500Y-113300000D03*
X176337500Y-112800000D03*
X176337500Y-112300000D03*
X176337500Y-111800000D03*
X176337500Y-111300000D03*
D12*
X90075000Y-104375000D03*
X90075000Y-102375000D03*
D18*
X134100000Y-49135000D03*
X132100000Y-49135000D03*
D12*
X92362500Y-89225000D03*
X92362500Y-87225000D03*
D72*
X87800000Y-72645000D03*
D73*
X87800000Y-75185000D03*
X87800000Y-77725000D03*
D74*
X137892500Y-59085000D03*
X167192500Y-59085000D03*
D21*
X79225000Y-151200000D03*
X81225000Y-151200000D03*
D26*
X206937500Y-129100000D03*
X213037500Y-129100000D03*
D12*
X162825000Y-159175000D03*
X162825000Y-157175000D03*
D17*
X111037500Y-100275000D03*
X111037500Y-102275000D03*
X164825000Y-149550000D03*
X164825000Y-151550000D03*
D42*
X213037500Y-124215000D03*
D43*
X213037500Y-119215000D03*
D17*
X178337500Y-116600000D03*
X178337500Y-118600000D03*
D11*
X87187500Y-103200000D03*
D21*
X88487500Y-91900000D03*
X90487500Y-91900000D03*
D75*
X108687500Y-77450000D03*
D76*
X102387500Y-75150000D03*
D75*
X108687500Y-75150000D03*
X108687500Y-72850000D03*
D11*
X167600000Y-50700000D03*
D21*
X150812500Y-140600000D03*
X152812500Y-140600000D03*
D18*
X128670000Y-158925000D03*
X126670000Y-158925000D03*
D21*
X178337500Y-120600000D03*
X180337500Y-120600000D03*
D20*
X177985000Y-156985000D03*
X177985000Y-158885000D03*
X179860000Y-157935000D03*
D18*
X98937500Y-103200000D03*
X96937500Y-103200000D03*
D33*
X82525000Y-72975000D03*
X82525000Y-76100000D03*
D38*
X72875000Y-45750000D03*
D12*
X184437500Y-52500000D03*
X184437500Y-50500000D03*
D18*
X168087500Y-119400000D03*
X166087500Y-119400000D03*
X85325000Y-80825000D03*
X83325000Y-80825000D03*
D12*
X175737500Y-67700000D03*
X175737500Y-65700000D03*
D21*
X176087500Y-96650000D03*
X178087500Y-96650000D03*
X180850000Y-112185000D03*
X182850000Y-112185000D03*
D39*
X211475000Y-147450000D03*
D40*
X213975000Y-147450000D03*
X216475000Y-147450000D03*
D77*
X77175000Y-126800000D03*
X80300000Y-126800000D03*
D11*
X121880000Y-154800000D03*
D32*
X169600000Y-153337500D03*
X169600000Y-155412500D03*
D11*
X87775000Y-154825000D03*
D34*
X95400000Y-54575000D03*
X93325000Y-54575000D03*
D32*
X84975000Y-71787500D03*
X84975000Y-73862500D03*
D21*
X85862500Y-133075000D03*
X87862500Y-133075000D03*
D18*
X119330000Y-156945000D03*
X117330000Y-156945000D03*
D21*
X169725000Y-146075000D03*
X171725000Y-146075000D03*
X75375000Y-78625000D03*
X77375000Y-78625000D03*
D42*
X213037500Y-139500000D03*
D43*
X213037500Y-134500000D03*
D18*
X100937500Y-81775000D03*
X98937500Y-81775000D03*
D33*
X180637500Y-57775000D03*
X180637500Y-60900000D03*
D21*
X88462500Y-89300000D03*
X90462500Y-89300000D03*
D78*
X172662500Y-82145000D03*
X172662500Y-83415000D03*
X172662500Y-84685000D03*
X172662500Y-85955000D03*
X177812500Y-85955000D03*
X177812500Y-84685000D03*
X177812500Y-83415000D03*
X177812500Y-82145000D03*
D26*
X181950000Y-150035000D03*
X188050000Y-150035000D03*
D18*
X98925000Y-109375000D03*
X96925000Y-109375000D03*
D21*
X79225000Y-153200000D03*
X81225000Y-153200000D03*
D27*
X84125000Y-130000000D03*
X86200000Y-130000000D03*
D32*
X161650000Y-143325000D03*
X161650000Y-145400000D03*
D21*
X157750000Y-143125000D03*
X159750000Y-143125000D03*
D79*
X164687500Y-133250000D03*
X164687500Y-136550000D03*
D29*
X201282323Y-49325000D03*
D30*
X206282323Y-49325000D03*
D21*
X88487500Y-93900000D03*
X90487500Y-93900000D03*
X162762500Y-140600000D03*
X164762500Y-140600000D03*
D38*
X216000000Y-45750000D03*
D18*
X82300000Y-130000000D03*
X80300000Y-130000000D03*
D11*
X194787500Y-53750000D03*
D12*
X108612500Y-102275000D03*
X108612500Y-100275000D03*
D11*
X94150000Y-100425000D03*
D80*
X176890000Y-55715000D03*
D81*
X84975000Y-78837500D03*
X84975000Y-75712500D03*
D15*
X199737500Y-140600000D03*
X204437500Y-129100000D03*
X204437500Y-122100000D03*
X204437500Y-140600000D03*
D20*
X177985000Y-153035000D03*
X177985000Y-154935000D03*
X179860000Y-153985000D03*
X177987500Y-145875000D03*
X177987500Y-147775000D03*
X179862500Y-146825000D03*
D61*
X177812500Y-94505000D03*
X177812500Y-93235000D03*
X177812500Y-91965000D03*
X177812500Y-90695000D03*
X172662500Y-90695000D03*
X172662500Y-91965000D03*
X172662500Y-93235000D03*
X172662500Y-94505000D03*
D82*
X106917500Y-57135000D03*
X106917500Y-65135000D03*
D26*
X206937500Y-113800000D03*
X213037500Y-113800000D03*
D83*
X171625000Y-153875000D03*
X171625000Y-151825000D03*
D21*
X178337500Y-122800000D03*
X180337500Y-122800000D03*
D11*
X94875000Y-154800000D03*
D84*
X77182500Y-123600000D03*
X78452500Y-123600000D03*
X79722500Y-123600000D03*
X80992500Y-123600000D03*
X82262500Y-123600000D03*
X83532500Y-123600000D03*
X84802500Y-123600000D03*
X86072500Y-123600000D03*
X87342500Y-123600000D03*
X88612500Y-123600000D03*
X89882500Y-123600000D03*
X91152500Y-123600000D03*
X92422500Y-123600000D03*
X93692500Y-123600000D03*
D85*
X94692500Y-120815000D03*
X94692500Y-119545000D03*
X94692500Y-118275000D03*
X94692500Y-117005000D03*
X94692500Y-115735000D03*
X94692500Y-114465000D03*
X94692500Y-113195000D03*
X94692500Y-111925000D03*
X94692500Y-110655000D03*
X94692500Y-109385000D03*
D84*
X93692500Y-106600000D03*
X92422500Y-106600000D03*
X91152500Y-106600000D03*
X89882500Y-106600000D03*
X88612500Y-106600000D03*
X87342500Y-106600000D03*
X86072500Y-106600000D03*
X84802500Y-106600000D03*
X83532500Y-106600000D03*
X82262500Y-106600000D03*
X80992500Y-106600000D03*
X79722500Y-106600000D03*
X78452500Y-106600000D03*
X77182500Y-106600000D03*
D86*
X84682500Y-116100000D03*
D34*
X177712500Y-69700000D03*
X175637500Y-69700000D03*
D11*
X110525000Y-87575000D03*
D21*
X158362500Y-113075000D03*
X160362500Y-113075000D03*
D11*
X84225000Y-154825000D03*
D87*
X95717500Y-58800000D03*
D88*
X93177500Y-58800000D03*
X90637500Y-58800000D03*
D18*
X182937500Y-88500000D03*
X180937500Y-88500000D03*
X156662500Y-140600000D03*
X154662500Y-140600000D03*
D19*
X173490000Y-153035000D03*
X173490000Y-153985000D03*
X173490000Y-154935000D03*
X175990000Y-154935000D03*
X175990000Y-153985000D03*
X175990000Y-153035000D03*
D12*
X168087500Y-125650000D03*
X168087500Y-123650000D03*
D17*
X164825000Y-157175000D03*
X164825000Y-159175000D03*
D21*
X178337500Y-63500000D03*
X180337500Y-63500000D03*
D15*
X189987500Y-140600000D03*
X194687500Y-129100000D03*
X194687500Y-122100000D03*
X194687500Y-140600000D03*
D21*
X162775000Y-147650000D03*
X164775000Y-147650000D03*
D28*
X157137500Y-110843750D03*
X160437500Y-110843750D03*
D11*
X116375000Y-48825000D03*
D12*
X171625000Y-150075000D03*
X171625000Y-148075000D03*
X178437500Y-52600000D03*
X178437500Y-50600000D03*
D21*
X176420000Y-130655000D03*
X178420000Y-130655000D03*
D17*
X134000000Y-67175000D03*
X134000000Y-69175000D03*
D80*
X73812500Y-86425000D03*
X73812500Y-94425000D03*
D89*
X84812500Y-93625000D03*
X84812500Y-92525000D03*
X84812500Y-91425000D03*
X84812500Y-90325000D03*
X84812500Y-89225000D03*
X84812500Y-88125000D03*
X84812500Y-87025000D03*
X84812500Y-85925000D03*
X84812500Y-84825000D03*
D90*
X83812500Y-98225000D03*
D91*
X83812500Y-83625000D03*
D92*
X74212500Y-83625000D03*
X74212500Y-99125000D03*
D32*
X169600000Y-149487500D03*
X169600000Y-151562500D03*
D21*
X176420000Y-128685000D03*
X178420000Y-128685000D03*
D93*
X88157500Y-49310000D03*
D94*
X83157500Y-49310000D03*
D11*
X171825000Y-66450000D03*
D39*
X208975000Y-154325000D03*
D40*
X211475000Y-154325000D03*
X213975000Y-154325000D03*
X216475000Y-154325000D03*
D95*
X129342500Y-84985000D03*
D87*
X131882500Y-69185000D03*
D88*
X129342500Y-69185000D03*
X126802500Y-69185000D03*
D95*
X129342500Y-62685000D03*
D87*
X131882500Y-46885000D03*
D88*
X129342500Y-46885000D03*
X126802500Y-46885000D03*
D96*
X206687500Y-76430000D03*
D97*
X201237500Y-96290000D03*
D98*
X206687500Y-96290000D03*
X212137500Y-96290000D03*
M02*
