M48
; DRILL file {KiCad 6.0.1-79c1e3a40b~116~ubuntu20.04.1} date Wed 02 Feb 2022 21:52:59 EET
; FORMAT={-:-/ absolute / metric / decimal}
; #@! TF.CreationDate,2022-02-02T21:52:59+02:00
; #@! TF.GenerationSoftware,Kicad,Pcbnew,6.0.1-79c1e3a40b~116~ubuntu20.04.1
; #@! TF.FileFunction,Plated,1,2,PTH
FMAT,2
METRIC
; #@! TA.AperFunction,Plated,PTH,ViaDrill
T1C0.300
; #@! TA.AperFunction,Plated,PTH,ViaDrill
T2C0.400
; #@! TA.AperFunction,Plated,PTH,ComponentDrill
T3C0.600
; #@! TA.AperFunction,Plated,PTH,ComponentDrill
T4C0.762
; #@! TA.AperFunction,Plated,PTH,ComponentDrill
T5C0.950
; #@! TA.AperFunction,Plated,PTH,ComponentDrill
T6C1.000
; #@! TA.AperFunction,Plated,PTH,ComponentDrill
T7C1.001
; #@! TA.AperFunction,Plated,PTH,ComponentDrill
T8C1.100
; #@! TA.AperFunction,Plated,PTH,ComponentDrill
T9C1.200
; #@! TA.AperFunction,Plated,PTH,ComponentDrill
T10C1.320
; #@! TA.AperFunction,Plated,PTH,ComponentDrill
T11C1.500
; #@! TA.AperFunction,Plated,PTH,ComponentDrill
T12C1.600
; #@! TA.AperFunction,Plated,PTH,ComponentDrill
T13C2.000
; #@! TA.AperFunction,Plated,PTH,ComponentDrill
T14C2.600
; #@! TA.AperFunction,Plated,PTH,ComponentDrill
T15C4.500
%
G90
G05
T1
X173.842Y-60.359
X173.842Y-58.361
X174.594Y-60.335
X174.6Y-58.385
X175.4Y-60.325
X175.452Y-58.339
X179.841Y-56.7
X179.841Y-59.75
X180.327Y-58.75
X180.352Y-61.975
X180.841Y-56.7
X180.841Y-59.75
X181.327Y-58.75
X181.352Y-61.975
X181.839Y-56.7
X181.839Y-59.75
X182.325Y-58.75
X182.35Y-61.975
X182.839Y-56.7
X182.839Y-59.75
X183.325Y-58.75
X183.35Y-61.975
X183.839Y-56.7
X183.839Y-59.75
X184.325Y-58.75
X184.35Y-61.975
X184.839Y-56.7
X184.839Y-59.75
X185.325Y-58.75
X185.35Y-61.975
X185.575Y-117.8
X185.575Y-118.8
X185.575Y-119.8
X185.575Y-120.8
X185.575Y-121.8
X185.575Y-122.8
X185.839Y-56.7
X185.839Y-59.75
X186.325Y-58.75
X186.35Y-61.975
X186.35Y-117.8
X186.35Y-118.8
X186.35Y-119.8
X186.35Y-120.8
X186.35Y-121.8
X186.35Y-122.8
X186.839Y-56.7
X186.839Y-59.75
X187.125Y-117.8
X187.125Y-118.8
X187.125Y-119.8
X187.125Y-120.8
X187.125Y-121.8
X187.125Y-122.8
X187.325Y-58.75
X187.35Y-61.975
X187.9Y-117.8
X187.9Y-118.8
X187.9Y-119.8
X187.9Y-120.8
X187.9Y-121.8
X187.9Y-122.8
X189.7Y-56.7
X189.7Y-57.7
X189.7Y-58.7
X190.675Y-88.9
X190.675Y-89.675
X190.675Y-90.45
X190.675Y-91.225
X190.75Y-58.7
X191.675Y-88.9
X191.675Y-89.675
X191.675Y-90.45
X191.675Y-91.225
X191.75Y-58.7
X192.675Y-88.9
X192.675Y-89.675
X192.675Y-90.45
X192.675Y-91.225
X192.75Y-58.7
X193.675Y-88.9
X193.675Y-89.675
X193.675Y-90.45
X193.675Y-91.225
X193.75Y-56.7
X193.75Y-57.7
X193.75Y-58.7
X194.675Y-88.9
X194.675Y-89.675
X194.675Y-90.45
X194.675Y-91.225
X195.675Y-88.9
X195.675Y-89.675
X195.675Y-90.45
X195.675Y-91.225
X195.825Y-56.7
X195.825Y-57.7
X195.825Y-58.7
X196.6Y-56.7
X196.6Y-57.7
X196.6Y-58.7
X196.675Y-88.9
X196.675Y-89.675
X196.675Y-90.45
X196.675Y-91.225
X197.375Y-56.7
X197.375Y-57.7
X197.375Y-58.7
X197.675Y-88.9
X197.675Y-89.675
X197.675Y-90.45
X197.675Y-91.225
X201.725Y-118.15
X201.725Y-118.925
X201.725Y-119.7
X201.725Y-120.475
X202.375Y-107.275
X202.375Y-108.05
X202.375Y-108.825
X202.375Y-109.6
X202.725Y-118.15
X202.725Y-118.925
X202.725Y-119.7
X202.725Y-120.475
X203.375Y-107.275
X203.375Y-108.05
X203.375Y-108.825
X203.375Y-109.6
X203.725Y-118.15
X203.725Y-118.925
X203.725Y-119.7
X203.725Y-120.475
X204.375Y-107.275
X204.375Y-108.05
X204.375Y-108.825
X204.375Y-109.6
X204.725Y-118.15
X204.725Y-118.925
X204.725Y-119.7
X204.725Y-120.475
X205.375Y-107.275
X205.375Y-108.05
X205.375Y-108.825
X205.375Y-109.6
X205.725Y-118.15
X205.725Y-118.925
X205.725Y-119.7
X205.725Y-120.475
X206.375Y-107.275
X206.375Y-108.05
X206.375Y-108.825
X206.375Y-109.6
X206.725Y-118.15
X206.725Y-118.925
X206.725Y-119.7
X206.725Y-120.475
X207.375Y-107.275
X207.375Y-108.05
X207.375Y-108.825
X207.375Y-109.6
X207.725Y-118.15
X207.725Y-118.925
X207.725Y-119.7
X207.725Y-120.475
X208.375Y-107.275
X208.375Y-108.05
X208.375Y-108.825
X208.375Y-109.6
X208.725Y-118.15
X208.725Y-118.925
X208.725Y-119.7
X208.725Y-120.475
X209.375Y-107.275
X209.375Y-108.05
X209.375Y-108.825
X209.375Y-109.6
T2
X71.615Y-65.135
X71.615Y-67.675
X71.615Y-72.755
X71.615Y-80.375
X71.615Y-82.915
X71.615Y-85.455
X71.615Y-87.995
X71.615Y-90.535
X71.615Y-93.075
X71.615Y-95.615
X71.615Y-98.155
X71.615Y-131.175
X71.615Y-133.715
X71.615Y-136.255
X71.615Y-141.335
X71.615Y-143.875
X71.615Y-146.415
X71.615Y-151.495
X71.615Y-154.035
X71.615Y-159.115
X73.1Y-69.775
X74.155Y-67.675
X74.155Y-72.755
X74.155Y-80.375
X74.155Y-87.995
X74.155Y-90.535
X74.155Y-131.175
X74.155Y-133.715
X74.155Y-136.255
X74.155Y-141.335
X74.155Y-159.115
X74.925Y-150.3
X75.15Y-153.925
X76.695Y-67.675
X76.695Y-80.375
X76.695Y-82.915
X76.695Y-85.455
X76.695Y-87.995
X76.695Y-90.535
X76.695Y-93.075
X76.695Y-95.615
X76.695Y-98.155
X76.695Y-100.695
X76.695Y-103.235
X76.695Y-110.855
X76.695Y-113.395
X76.695Y-115.935
X76.695Y-118.475
X76.695Y-121.015
X76.695Y-133.715
X76.695Y-136.255
X76.695Y-138.795
X76.695Y-141.335
X76.695Y-146.415
X76.695Y-159.115
X78.64Y-155.865
X79.225Y-149.925
X79.225Y-154.425
X79.235Y-60.055
X79.235Y-62.595
X79.235Y-65.135
X79.235Y-67.675
X79.235Y-82.915
X79.235Y-85.455
X79.235Y-87.995
X79.235Y-90.535
X79.235Y-93.075
X79.235Y-110.855
X79.235Y-113.395
X79.235Y-115.935
X79.235Y-118.475
X79.29Y-156.525
X80.02Y-157.245
X80.3Y-128.125
X80.3Y-128.95
X81.775Y-60.055
X81.775Y-62.595
X81.775Y-65.135
X81.775Y-67.675
X81.775Y-82.915
X81.775Y-133.715
X81.775Y-136.255
X81.775Y-138.795
X81.775Y-141.335
X81.875Y-108.925
X81.875Y-110.075
X83.475Y-87.15
X83.475Y-127.175
X83.487Y-89.225
X83.562Y-108.425
X84.011Y-125.574
X84.315Y-60.055
X84.315Y-62.595
X84.315Y-65.135
X84.315Y-67.675
X84.315Y-110.855
X84.315Y-115.935
X84.315Y-136.255
X84.315Y-138.795
X84.315Y-141.335
X84.315Y-146.415
X84.7Y-97.65
X84.8Y-122.095
X84.8Y-143.375
X84.8Y-144.425
X85.013Y-104.475
X86.21Y-128.595
X86.537Y-108.225
X86.775Y-134.375
X86.855Y-54.975
X86.855Y-57.515
X86.855Y-60.055
X86.855Y-62.595
X86.855Y-65.135
X86.855Y-110.855
X86.855Y-121.015
X88.609Y-125.091
X88.638Y-104.85
X89.288Y-93.95
X89.395Y-54.975
X89.395Y-110.855
X89.395Y-113.395
X89.395Y-121.015
X89.395Y-141.335
X89.395Y-146.415
X89.395Y-148.955
X89.395Y-151.495
X89.65Y-130.5
X90.05Y-129.025
X90.07Y-101.185
X90.513Y-97.5
X91.175Y-112.65
X91.887Y-104.409
X91.935Y-118.475
X91.935Y-141.335
X91.935Y-146.415
X91.935Y-148.955
X91.935Y-151.495
X92.237Y-99.325
X92.275Y-129.774
X92.4Y-88.424
X93.07Y-125.6
X93.245Y-109.385
X93.76Y-104.885
X94.38Y-125.15
X94.475Y-62.595
X94.475Y-65.135
X94.475Y-67.675
X94.475Y-70.215
X94.475Y-82.915
X94.475Y-131.175
X94.475Y-133.715
X94.475Y-136.255
X94.475Y-138.795
X94.475Y-141.335
X94.475Y-146.415
X94.475Y-148.955
X94.475Y-151.495
X95.97Y-107.415
X96.66Y-124.205
X96.912Y-101.325
X97.015Y-62.595
X97.015Y-65.135
X97.015Y-67.675
X97.015Y-70.215
X97.015Y-131.175
X97.015Y-133.715
X97.015Y-136.255
X97.015Y-138.795
X97.015Y-141.335
X97.015Y-146.415
X97.015Y-148.955
X97.015Y-151.495
X97.35Y-81.9
X97.39Y-112.595
X97.4Y-105.875
X97.657Y-113.559
X98.937Y-124.251
X99.555Y-65.135
X99.555Y-67.675
X99.555Y-70.215
X99.555Y-113.395
X99.555Y-115.935
X99.555Y-118.475
X99.555Y-121.015
X99.555Y-131.175
X99.555Y-133.715
X99.555Y-136.255
X99.555Y-138.795
X99.555Y-146.415
X99.555Y-148.955
X99.555Y-151.495
X100.01Y-109.385
X101.975Y-154.8
X102.095Y-62.595
X102.095Y-65.135
X102.095Y-67.675
X102.095Y-70.215
X102.095Y-87.995
X102.095Y-95.615
X102.095Y-113.395
X102.095Y-115.935
X102.095Y-118.475
X102.095Y-121.015
X102.095Y-131.175
X102.095Y-133.715
X102.095Y-136.255
X102.095Y-143.875
X102.095Y-146.415
X102.095Y-148.955
X102.095Y-151.495
X102.675Y-103.725
X103.774Y-104.873
X104.487Y-75.925
X104.525Y-72.85
X104.635Y-62.595
X104.635Y-65.135
X104.635Y-67.675
X104.635Y-70.215
X104.635Y-80.375
X104.635Y-82.915
X104.635Y-87.995
X104.635Y-90.535
X104.635Y-141.335
X104.635Y-143.875
X104.635Y-146.415
X105.575Y-72.85
X105.587Y-75.925
X106.04Y-149.875
X106.637Y-75.925
X106.675Y-72.85
X107.175Y-65.135
X107.175Y-70.215
X107.175Y-87.995
X107.175Y-90.535
X107.175Y-113.395
X107.175Y-115.935
X107.175Y-118.475
X107.175Y-121.015
X107.175Y-131.175
X107.175Y-133.715
X107.175Y-136.255
X107.175Y-138.795
X107.175Y-141.335
X108.412Y-98.475
X109.715Y-62.595
X109.715Y-65.135
X109.715Y-67.675
X109.715Y-70.215
X109.715Y-95.615
X109.715Y-105.775
X109.715Y-113.395
X109.715Y-115.935
X109.715Y-118.475
X109.715Y-121.015
X109.715Y-131.175
X109.715Y-133.715
X109.715Y-136.255
X109.715Y-138.795
X112.255Y-62.595
X112.255Y-65.135
X112.255Y-67.675
X112.255Y-70.215
X112.255Y-72.755
X112.255Y-75.295
X112.255Y-77.835
X112.255Y-80.375
X112.255Y-82.915
X112.255Y-93.075
X112.255Y-95.615
X112.255Y-113.395
X112.255Y-115.935
X112.255Y-118.475
X112.255Y-121.015
X112.255Y-131.175
X112.255Y-133.715
X112.255Y-136.255
X112.255Y-138.795
X112.255Y-143.875
X112.255Y-146.415
X114.037Y-99.999
X114.795Y-62.595
X114.795Y-65.135
X114.795Y-67.675
X114.795Y-70.215
X114.795Y-72.755
X114.795Y-75.295
X114.795Y-77.835
X114.795Y-80.375
X114.795Y-82.915
X114.795Y-95.615
X114.795Y-108.315
X114.795Y-113.395
X114.795Y-115.935
X114.795Y-118.475
X114.795Y-121.015
X114.795Y-131.175
X114.795Y-133.715
X114.795Y-136.255
X114.795Y-138.795
X114.795Y-143.875
X114.795Y-151.495
X114.795Y-154.035
X115.35Y-146.075
X116.14Y-156.935
X117.335Y-67.675
X117.335Y-70.215
X117.335Y-72.755
X117.335Y-75.295
X117.335Y-77.835
X117.335Y-80.375
X117.335Y-82.915
X117.335Y-85.455
X117.335Y-87.995
X117.335Y-105.775
X117.335Y-108.315
X117.335Y-113.395
X117.335Y-115.935
X117.335Y-118.475
X117.335Y-121.015
X117.335Y-131.175
X117.335Y-133.715
X117.335Y-136.255
X117.335Y-138.795
X117.335Y-143.875
X119.15Y-148.6
X119.225Y-147.325
X119.325Y-153.675
X119.875Y-62.595
X119.875Y-65.135
X119.875Y-67.675
X119.875Y-70.215
X119.875Y-72.755
X119.875Y-75.295
X119.875Y-77.835
X119.875Y-80.375
X119.875Y-82.915
X119.875Y-85.455
X119.875Y-87.995
X119.875Y-90.535
X119.875Y-98.155
X119.875Y-105.775
X119.875Y-108.315
X119.875Y-113.395
X119.875Y-115.935
X119.875Y-118.475
X119.875Y-121.015
X122.415Y-62.595
X122.415Y-65.135
X122.415Y-67.675
X122.415Y-70.215
X122.415Y-72.755
X122.415Y-75.295
X122.415Y-77.835
X122.415Y-80.375
X122.415Y-82.915
X122.415Y-85.455
X122.415Y-87.995
X122.415Y-90.535
X122.415Y-100.695
X122.415Y-113.395
X122.415Y-115.935
X122.415Y-118.475
X122.415Y-121.015
X122.415Y-131.175
X122.415Y-133.715
X122.415Y-136.255
X122.415Y-138.795
X122.415Y-148.955
X122.49Y-142.395
X124.955Y-70.215
X124.955Y-72.755
X124.955Y-75.295
X124.955Y-77.835
X124.955Y-80.375
X124.955Y-82.915
X124.955Y-85.455
X124.955Y-87.995
X124.955Y-90.535
X124.955Y-103.235
X124.955Y-110.855
X124.955Y-113.395
X124.955Y-115.935
X124.955Y-118.475
X124.955Y-121.015
X124.955Y-131.175
X124.955Y-133.715
X124.955Y-136.255
X124.955Y-138.795
X124.955Y-146.415
X124.955Y-148.955
X127.427Y-107.174
X127.495Y-72.755
X127.495Y-75.295
X127.495Y-77.835
X127.495Y-80.375
X127.495Y-87.995
X127.495Y-90.535
X127.495Y-98.155
X127.495Y-115.935
X127.495Y-118.475
X127.495Y-121.015
X127.495Y-131.175
X127.495Y-133.715
X127.495Y-136.255
X127.495Y-146.415
X127.495Y-148.955
X128.113Y-107.901
X128.965Y-108.422
X129.1Y-113.725
X129.825Y-109.613
X129.825Y-112.275
X130.035Y-72.755
X130.035Y-75.295
X130.035Y-77.835
X130.035Y-80.375
X130.035Y-87.995
X130.035Y-90.535
X130.035Y-98.155
X130.035Y-100.695
X130.035Y-141.335
X130.035Y-148.955
X130.876Y-113.349
X131.175Y-110.925
X131.969Y-111.757
X132.575Y-72.755
X132.575Y-75.295
X132.575Y-77.835
X132.575Y-80.375
X132.575Y-82.915
X132.575Y-85.455
X132.575Y-87.995
X132.575Y-90.535
X132.575Y-98.155
X132.575Y-100.695
X132.575Y-115.935
X132.575Y-118.475
X132.575Y-121.015
X132.575Y-131.175
X132.575Y-133.715
X132.575Y-136.255
X132.575Y-138.795
X132.575Y-141.335
X132.575Y-143.875
X133.784Y-123.802
X134.705Y-124.23
X135.115Y-47.355
X135.115Y-72.755
X135.115Y-75.295
X135.115Y-77.835
X135.115Y-80.375
X135.115Y-82.915
X135.115Y-85.455
X135.115Y-87.995
X135.115Y-90.535
X135.115Y-98.155
X135.115Y-108.315
X135.115Y-110.855
X135.115Y-115.935
X135.115Y-118.475
X135.115Y-121.015
X135.115Y-143.875
X135.115Y-146.415
X135.115Y-148.955
X135.115Y-156.575
X135.691Y-124.396
X136.549Y-124.907
X137.27Y-125.6
X137.655Y-47.355
X137.655Y-67.675
X137.655Y-70.215
X137.655Y-72.755
X137.655Y-75.295
X137.655Y-77.835
X137.655Y-80.375
X137.655Y-82.915
X137.655Y-85.455
X137.655Y-87.995
X137.655Y-90.535
X137.655Y-133.715
X137.655Y-136.255
X137.655Y-138.795
X137.655Y-146.415
X137.655Y-148.955
X137.655Y-151.495
X137.995Y-129.774
X138.0Y-104.725
X138.0Y-113.825
X139.07Y-102.2
X139.07Y-104.705
X139.07Y-113.825
X139.082Y-130.843
X139.67Y-64.285
X139.925Y-95.175
X140.195Y-47.355
X140.195Y-67.675
X140.195Y-70.215
X140.195Y-72.755
X140.195Y-75.295
X140.195Y-77.835
X140.195Y-80.375
X140.195Y-82.915
X140.195Y-85.455
X140.195Y-87.995
X140.195Y-90.535
X140.195Y-108.315
X140.195Y-110.855
X140.195Y-115.935
X140.195Y-118.475
X140.195Y-121.015
X140.195Y-123.555
X140.27Y-92.315
X141.274Y-143.205
X141.3Y-144.255
X141.32Y-145.265
X142.26Y-65.124
X142.735Y-47.355
X142.735Y-52.435
X142.735Y-67.675
X142.735Y-70.215
X142.735Y-72.755
X142.735Y-75.295
X142.735Y-77.835
X142.735Y-80.375
X142.735Y-82.915
X142.735Y-85.455
X142.735Y-87.995
X142.735Y-105.775
X142.735Y-108.315
X142.735Y-110.855
X142.735Y-115.935
X142.735Y-118.475
X142.735Y-121.015
X142.735Y-123.555
X142.735Y-131.175
X142.735Y-133.715
X142.735Y-136.255
X142.735Y-141.335
X142.735Y-151.495
X143.632Y-128.467
X145.275Y-47.355
X145.275Y-52.435
X145.275Y-54.975
X145.275Y-57.515
X145.275Y-60.055
X145.275Y-67.675
X145.275Y-70.215
X145.275Y-72.755
X145.275Y-75.295
X145.275Y-77.835
X145.275Y-80.375
X145.275Y-82.915
X145.275Y-85.455
X145.275Y-98.155
X145.275Y-105.775
X145.275Y-108.315
X145.275Y-110.855
X145.275Y-115.935
X145.275Y-118.475
X145.275Y-121.015
X145.275Y-133.715
X145.275Y-136.255
X145.275Y-146.415
X146.378Y-151.623
X147.233Y-150.768
X147.815Y-47.355
X147.815Y-52.435
X147.815Y-54.975
X147.815Y-57.515
X147.815Y-60.055
X147.815Y-67.675
X147.815Y-70.215
X147.815Y-72.755
X147.815Y-75.295
X147.815Y-77.835
X147.815Y-80.375
X147.815Y-82.915
X147.815Y-98.155
X147.815Y-105.775
X147.815Y-108.315
X147.815Y-110.855
X147.815Y-115.935
X147.815Y-118.475
X147.815Y-126.095
X147.815Y-128.635
X147.815Y-141.335
X150.355Y-47.355
X150.355Y-52.435
X150.355Y-54.975
X150.355Y-57.515
X150.355Y-60.055
X150.355Y-67.675
X150.355Y-70.215
X150.355Y-72.755
X150.355Y-75.295
X150.355Y-77.835
X150.355Y-80.375
X150.355Y-93.075
X150.355Y-98.155
X150.355Y-105.775
X150.355Y-108.315
X150.355Y-110.855
X150.355Y-115.935
X150.355Y-123.555
X150.355Y-126.095
X150.355Y-128.635
X150.355Y-131.175
X150.355Y-154.035
X152.588Y-138.825
X152.895Y-47.355
X152.895Y-52.435
X152.895Y-54.975
X152.895Y-57.515
X152.895Y-60.055
X152.895Y-67.675
X152.895Y-70.215
X152.895Y-72.755
X152.895Y-75.295
X152.895Y-77.835
X152.895Y-80.375
X152.895Y-90.535
X152.895Y-93.075
X152.895Y-98.155
X152.895Y-105.775
X152.895Y-108.315
X152.895Y-110.855
X152.895Y-121.015
X152.895Y-123.555
X152.895Y-126.095
X152.895Y-128.635
X152.895Y-131.175
X152.895Y-146.415
X152.895Y-154.035
X152.895Y-156.575
X153.31Y-133.215
X154.36Y-133.215
X155.435Y-47.355
X155.435Y-52.435
X155.435Y-54.975
X155.435Y-57.515
X155.435Y-60.055
X155.435Y-67.675
X155.435Y-70.215
X155.435Y-72.755
X155.435Y-75.295
X155.435Y-77.835
X155.435Y-80.375
X155.435Y-90.535
X155.435Y-93.075
X155.435Y-98.155
X155.435Y-105.775
X155.435Y-108.315
X155.435Y-110.855
X155.435Y-118.475
X155.435Y-121.015
X155.435Y-123.555
X155.435Y-126.095
X155.435Y-128.635
X155.435Y-131.175
X155.435Y-146.415
X155.435Y-159.115
X155.46Y-133.215
X155.487Y-116.025
X155.512Y-114.575
X157.975Y-47.355
X157.975Y-52.435
X157.975Y-54.975
X157.975Y-57.515
X157.975Y-60.055
X157.975Y-67.675
X157.975Y-70.215
X157.975Y-72.755
X157.975Y-75.295
X157.975Y-77.835
X157.975Y-80.375
X157.975Y-90.535
X157.975Y-93.075
X157.975Y-98.155
X157.975Y-156.575
X157.975Y-159.115
X158.287Y-114.6
X158.312Y-116.025
X160.515Y-47.355
X160.515Y-52.435
X160.515Y-54.975
X160.515Y-57.515
X160.515Y-60.055
X160.515Y-67.675
X160.515Y-70.215
X160.515Y-72.755
X160.515Y-75.295
X160.515Y-77.835
X160.515Y-80.375
X160.515Y-90.535
X160.515Y-108.315
X160.515Y-115.935
X160.515Y-118.475
X160.515Y-121.015
X160.515Y-123.555
X160.515Y-126.095
X160.515Y-128.635
X160.515Y-131.175
X160.515Y-151.495
X160.515Y-159.115
X161.05Y-94.775
X161.775Y-95.825
X162.762Y-139.2
X163.055Y-47.355
X163.055Y-67.675
X163.055Y-70.215
X163.055Y-72.755
X163.055Y-75.295
X163.055Y-77.835
X163.055Y-80.375
X163.055Y-90.535
X163.055Y-100.695
X163.055Y-126.095
X163.055Y-128.635
X163.055Y-131.175
X164.02Y-123.445
X165.595Y-47.355
X165.595Y-67.675
X165.595Y-70.215
X165.595Y-72.755
X165.595Y-75.295
X165.595Y-77.835
X165.595Y-80.375
X165.595Y-98.155
X165.595Y-100.695
X165.595Y-131.175
X165.787Y-103.35
X166.025Y-147.675
X166.25Y-155.375
X166.262Y-109.125
X166.5Y-159.175
X166.675Y-151.55
X167.225Y-85.8
X168.135Y-47.355
X168.135Y-67.675
X168.135Y-70.215
X168.135Y-72.755
X168.135Y-75.295
X168.135Y-77.835
X168.512Y-84.675
X169.0Y-116.625
X169.538Y-101.637
X169.55Y-147.525
X169.63Y-63.575
X169.762Y-82.901
X170.57Y-99.135
X170.675Y-47.355
X170.675Y-72.755
X170.675Y-75.295
X170.675Y-77.835
X170.675Y-138.795
X170.725Y-109.075
X170.949Y-111.875
X171.3Y-86.831
X171.703Y-144.437
X171.8Y-123.455
X171.838Y-66.4
X172.479Y-145.164
X172.65Y-63.012
X172.7Y-64.164
X173.215Y-72.755
X173.215Y-75.295
X173.215Y-77.835
X173.215Y-136.255
X173.215Y-138.795
X173.3Y-67.825
X173.338Y-111.1
X173.987Y-113.1
X174.1Y-64.275
X174.424Y-119.625
X174.62Y-82.645
X174.775Y-149.45
X174.825Y-146.075
X174.825Y-157.0
X174.85Y-153.025
X175.074Y-111.612
X175.338Y-109.05
X175.755Y-72.755
X175.755Y-75.295
X175.755Y-77.835
X175.755Y-100.695
X175.755Y-115.935
X175.755Y-136.255
X175.755Y-138.795
X175.755Y-141.335
X175.838Y-62.4
X175.838Y-63.4
X176.213Y-105.05
X176.225Y-85.4
X176.85Y-118.525
X176.963Y-103.35
X177.113Y-67.75
X177.438Y-111.85
X178.295Y-60.055
X178.295Y-136.255
X178.295Y-138.795
X178.295Y-141.335
X179.475Y-82.6
X179.95Y-145.575
X179.95Y-148.25
X180.0Y-151.825
X180.0Y-155.625
X180.835Y-67.675
X180.835Y-70.215
X180.835Y-72.755
X180.835Y-75.295
X180.835Y-77.835
X180.835Y-80.375
X180.835Y-136.255
X180.835Y-138.795
X182.034Y-87.645
X183.375Y-65.135
X183.375Y-67.675
X183.375Y-70.215
X183.375Y-72.755
X183.375Y-75.295
X183.375Y-77.835
X183.375Y-80.375
X183.375Y-126.095
X183.375Y-141.335
X185.915Y-44.815
X185.915Y-47.355
X185.915Y-65.135
X185.915Y-67.675
X185.915Y-70.215
X185.915Y-72.755
X185.915Y-75.295
X185.915Y-77.835
X185.915Y-80.375
X185.915Y-126.095
X185.915Y-141.335
X185.915Y-146.415
X185.915Y-154.035
X185.915Y-159.115
X188.455Y-44.815
X188.455Y-47.355
X188.455Y-49.895
X188.455Y-65.135
X188.455Y-67.675
X188.455Y-70.215
X188.455Y-72.755
X188.455Y-75.295
X188.455Y-77.835
X188.455Y-80.375
X188.455Y-82.915
X188.455Y-85.455
X188.455Y-126.095
X188.455Y-136.255
X188.455Y-138.795
X188.97Y-52.105
X190.05Y-115.425
X190.995Y-44.815
X190.995Y-47.355
X190.995Y-49.895
X190.995Y-108.315
X190.995Y-126.095
X193.535Y-44.815
X193.535Y-47.355
X193.535Y-49.895
X193.535Y-105.775
X193.535Y-108.315
X193.535Y-126.095
X196.075Y-49.895
X196.075Y-103.235
X196.075Y-105.775
X196.075Y-108.315
X196.075Y-118.475
X196.075Y-126.095
X198.615Y-49.895
X198.615Y-52.435
X198.615Y-103.235
X198.615Y-105.775
X198.615Y-108.315
X198.615Y-126.095
X198.615Y-143.875
X201.155Y-44.815
X201.155Y-47.355
X201.155Y-57.515
X201.155Y-60.055
X201.155Y-62.595
X201.155Y-65.135
X201.155Y-67.675
X201.155Y-70.215
X201.155Y-72.755
X201.155Y-75.295
X201.155Y-77.835
X201.155Y-80.375
X201.155Y-82.915
X201.155Y-85.455
X201.155Y-87.995
X201.155Y-90.535
X201.155Y-103.235
X201.155Y-105.775
X201.155Y-126.095
X201.155Y-133.715
X201.155Y-143.875
X203.695Y-44.815
X203.695Y-47.355
X203.695Y-49.895
X203.695Y-52.435
X203.695Y-54.975
X203.695Y-57.515
X203.695Y-60.055
X203.695Y-62.595
X203.695Y-65.135
X203.695Y-67.675
X203.695Y-70.215
X203.695Y-72.755
X203.695Y-75.295
X203.695Y-77.835
X203.695Y-80.375
X203.695Y-82.915
X203.695Y-85.455
X203.695Y-87.995
X203.695Y-90.535
X203.695Y-126.095
X203.695Y-133.715
X203.695Y-136.255
X203.695Y-143.875
X203.695Y-159.115
X206.235Y-44.815
X206.235Y-47.355
X206.235Y-52.435
X206.235Y-54.975
X206.235Y-57.515
X206.235Y-60.055
X206.235Y-62.595
X206.235Y-65.135
X206.235Y-67.675
X206.235Y-70.215
X206.235Y-72.755
X206.235Y-80.375
X206.235Y-82.915
X206.235Y-85.455
X206.235Y-87.995
X206.235Y-90.535
X206.235Y-133.715
X206.235Y-136.255
X206.235Y-138.795
X206.235Y-141.335
X206.235Y-143.875
X206.235Y-159.115
X208.775Y-44.815
X208.775Y-47.355
X208.775Y-49.895
X208.775Y-52.435
X208.775Y-54.975
X208.775Y-57.515
X208.775Y-60.055
X208.775Y-62.595
X208.775Y-65.135
X208.775Y-67.675
X208.775Y-70.215
X208.775Y-72.755
X208.775Y-80.375
X208.775Y-82.915
X208.775Y-85.455
X208.775Y-87.995
X208.775Y-90.535
X208.775Y-133.715
X208.775Y-136.255
X208.775Y-138.795
X208.775Y-143.875
X208.775Y-148.955
X208.775Y-159.115
X211.315Y-44.815
X211.315Y-47.355
X211.315Y-49.895
X211.315Y-52.435
X211.315Y-54.975
X211.315Y-57.515
X211.315Y-60.055
X211.315Y-62.595
X211.315Y-65.135
X211.315Y-67.675
X211.315Y-70.215
X211.315Y-72.755
X211.315Y-75.295
X211.315Y-77.835
X211.315Y-80.375
X211.315Y-82.915
X211.315Y-85.455
X211.315Y-87.995
X211.315Y-90.535
X211.315Y-100.695
X211.315Y-115.935
X211.315Y-131.175
X211.315Y-143.875
X211.315Y-159.115
X213.855Y-49.895
X213.855Y-52.435
X213.855Y-54.975
X213.855Y-57.515
X213.855Y-60.055
X213.855Y-62.595
X213.855Y-67.675
X213.855Y-70.215
X213.855Y-72.755
X213.855Y-75.295
X213.855Y-77.835
X213.855Y-80.375
X213.855Y-82.915
X213.855Y-85.455
X213.855Y-87.995
X213.855Y-90.535
X213.855Y-100.695
X213.855Y-143.875
X213.855Y-159.115
X216.395Y-49.895
X216.395Y-52.435
X216.395Y-54.975
X216.395Y-57.515
X216.395Y-60.055
X216.395Y-62.595
X216.395Y-70.215
X216.395Y-72.755
X216.395Y-75.295
X216.395Y-77.835
X216.395Y-80.375
X216.395Y-82.915
X216.395Y-85.455
X216.395Y-87.995
X216.395Y-90.535
X216.395Y-100.695
X216.395Y-103.235
X216.395Y-105.775
X216.395Y-113.395
X216.395Y-115.935
X216.395Y-118.475
X216.395Y-121.015
X216.395Y-128.635
X216.395Y-131.175
X216.395Y-133.715
X216.395Y-136.255
X216.395Y-138.795
X216.395Y-141.335
X216.395Y-143.875
X216.395Y-151.495
X216.395Y-156.575
X216.395Y-159.115
X218.935Y-44.815
X218.935Y-47.355
X218.935Y-49.895
X218.935Y-52.435
X218.935Y-54.975
X218.935Y-57.515
X218.935Y-60.055
X218.935Y-62.595
X218.935Y-65.135
X218.935Y-67.675
X218.935Y-70.215
X218.935Y-72.755
X218.935Y-75.295
X218.935Y-77.835
X218.935Y-80.375
X218.935Y-82.915
X218.935Y-85.455
X218.935Y-87.995
X218.935Y-90.535
X218.935Y-93.075
X218.935Y-95.615
X218.935Y-98.155
X218.935Y-100.695
X218.935Y-103.235
X218.935Y-105.775
X218.935Y-108.315
X218.935Y-110.855
X218.935Y-113.395
X218.935Y-115.935
X218.935Y-118.475
X218.935Y-121.015
X218.935Y-123.555
X218.935Y-126.095
X218.935Y-128.635
X218.935Y-131.175
X218.935Y-133.715
X218.935Y-136.255
X218.935Y-138.795
X218.935Y-141.335
X218.935Y-143.875
X218.935Y-146.415
X218.935Y-148.955
X218.935Y-151.495
X218.935Y-154.035
X218.935Y-156.575
X218.935Y-159.115
T4
X189.987Y-100.65
X189.987Y-112.15
X189.987Y-119.15
X189.987Y-140.6
X194.688Y-100.65
X194.688Y-122.1
X194.688Y-129.1
X194.688Y-140.6
X199.737Y-140.6
X199.738Y-100.65
X199.738Y-112.15
X199.738Y-119.15
X204.438Y-122.1
X204.438Y-129.1
X204.438Y-140.6
X204.438Y-100.65
T5
X192.95Y-147.45
X192.95Y-154.325
X195.45Y-147.45
X195.45Y-154.325
X197.95Y-147.45
X197.95Y-154.325
X200.45Y-147.45
X200.45Y-154.325
X202.95Y-147.45
X202.95Y-154.325
X205.45Y-147.45
X208.975Y-154.325
X211.475Y-147.45
X211.475Y-154.325
X213.975Y-147.45
X213.975Y-154.325
X216.475Y-147.45
X216.475Y-154.325
T6
X132.625Y-147.375
X132.625Y-154.975
X140.5Y-149.325
X140.5Y-151.825
X140.5Y-154.325
X155.0Y-149.325
X155.0Y-154.325
X201.282Y-49.325
X206.282Y-49.325
T7
X98.537Y-87.33
X98.537Y-89.87
X98.537Y-92.41
X98.537Y-94.95
T8
X87.8Y-72.645
X87.8Y-75.185
X87.8Y-77.725
X90.638Y-58.8
X93.177Y-58.8
X95.718Y-58.8
T9
X126.802Y-46.885
X126.802Y-69.185
X129.343Y-46.885
X129.343Y-69.185
X131.882Y-46.885
X131.882Y-69.185
X215.65Y-65.87
X215.65Y-96.35
T10
X213.037Y-103.9
X213.037Y-108.9
X213.037Y-119.215
X213.037Y-124.215
X213.037Y-134.5
X213.037Y-139.5
T11
X83.157Y-49.31
X88.157Y-49.31
X201.237Y-96.29
X206.688Y-96.29
X212.137Y-96.29
T12
X181.28Y-45.735
X196.52Y-45.735
T14
X137.892Y-59.085
X148.0Y-146.225
X148.0Y-157.425
X167.192Y-59.085
T15
X74.438Y-54.4
X74.438Y-61.6
T3
X71.11Y-147.855G85X71.91Y-147.855
G05
X71.11Y-156.495G85X71.91Y-156.495
G05
X75.13Y-147.855G85X76.23Y-147.855
G05
X75.13Y-156.495G85X76.23Y-156.495
G05
T13
X95.617Y-49.385G85X99.617Y-49.385
G05
X104.917Y-49.385G85X108.917Y-49.385
G05
T0
M30
