%TF.GenerationSoftware,KiCad,Pcbnew,6.0.1-79c1e3a40b~116~ubuntu20.04.1*%
%TF.CreationDate,2022-02-02T21:52:55+02:00*%
%TF.ProjectId,OBQAS,4f425141-532e-46b6-9963-61645f706362,rev?*%
%TF.SameCoordinates,Original*%
%TF.FileFunction,Paste,Top*%
%TF.FilePolarity,Positive*%
%FSLAX46Y46*%
G04 Gerber Fmt 4.6, Leading zero omitted, Abs format (unit mm)*
G04 Created by KiCad (PCBNEW 6.0.1-79c1e3a40b~116~ubuntu20.04.1) date 2022-02-02 21:52:55*
%MOMM*%
%LPD*%
G01*
G04 APERTURE LIST*
G04 Aperture macros list*
%AMRoundRect*
0 Rectangle with rounded corners*
0 $1 Rounding radius*
0 $2 $3 $4 $5 $6 $7 $8 $9 X,Y pos of 4 corners*
0 Add a 4 corners polygon primitive as box body*
4,1,4,$2,$3,$4,$5,$6,$7,$8,$9,$2,$3,0*
0 Add four circle primitives for the rounded corners*
1,1,$1+$1,$2,$3*
1,1,$1+$1,$4,$5*
1,1,$1+$1,$6,$7*
1,1,$1+$1,$8,$9*
0 Add four rect primitives between the rounded corners*
20,1,$1+$1,$2,$3,$4,$5,0*
20,1,$1+$1,$4,$5,$6,$7,0*
20,1,$1+$1,$6,$7,$8,$9,0*
20,1,$1+$1,$8,$9,$2,$3,0*%
G04 Aperture macros list end*
%ADD10C,0.100000*%
%ADD11RoundRect,0.250000X0.450000X-0.350000X0.450000X0.350000X-0.450000X0.350000X-0.450000X-0.350000X0*%
%ADD12RoundRect,0.250000X0.475000X-0.337500X0.475000X0.337500X-0.475000X0.337500X-0.475000X-0.337500X0*%
%ADD13RoundRect,0.250000X-0.450000X0.350000X-0.450000X-0.350000X0.450000X-0.350000X0.450000X0.350000X0*%
%ADD14RoundRect,0.250000X0.350000X0.450000X-0.350000X0.450000X-0.350000X-0.450000X0.350000X-0.450000X0*%
%ADD15R,1.150000X0.600000*%
%ADD16RoundRect,0.150000X-0.587500X-0.150000X0.587500X-0.150000X0.587500X0.150000X-0.587500X0.150000X0*%
%ADD17RoundRect,0.250000X-0.350000X-0.450000X0.350000X-0.450000X0.350000X0.450000X-0.350000X0.450000X0*%
%ADD18RoundRect,0.250000X0.412500X0.650000X-0.412500X0.650000X-0.412500X-0.650000X0.412500X-0.650000X0*%
%ADD19RoundRect,0.150000X-0.512500X-0.150000X0.512500X-0.150000X0.512500X0.150000X-0.512500X0.150000X0*%
%ADD20RoundRect,0.249999X-0.450001X-1.425001X0.450001X-1.425001X0.450001X1.425001X-0.450001X1.425001X0*%
%ADD21RoundRect,0.250000X-0.337500X-0.475000X0.337500X-0.475000X0.337500X0.475000X-0.337500X0.475000X0*%
%ADD22R,0.900000X1.200000*%
%ADD23RoundRect,0.150000X0.150000X-0.587500X0.150000X0.587500X-0.150000X0.587500X-0.150000X-0.587500X0*%
%ADD24RoundRect,0.250000X-0.475000X0.337500X-0.475000X-0.337500X0.475000X-0.337500X0.475000X0.337500X0*%
%ADD25RoundRect,0.250000X-0.650000X0.412500X-0.650000X-0.412500X0.650000X-0.412500X0.650000X0.412500X0*%
%ADD26RoundRect,0.250000X0.337500X0.475000X-0.337500X0.475000X-0.337500X-0.475000X0.337500X-0.475000X0*%
%ADD27RoundRect,0.250000X1.500000X0.550000X-1.500000X0.550000X-1.500000X-0.550000X1.500000X-0.550000X0*%
%ADD28R,2.400000X1.500000*%
%ADD29C,0.306367*%
%ADD30R,0.249999X0.599999*%
%ADD31R,0.249999X0.725000*%
%ADD32C,0.289687*%
%ADD33R,0.625000X0.249999*%
%ADD34C,0.258750*%
%ADD35C,0.332306*%
%ADD36R,0.675000X0.249999*%
%ADD37R,0.599999X0.249999*%
%ADD38R,1.425001X0.375001*%
%ADD39RoundRect,0.150000X-0.825000X-0.150000X0.825000X-0.150000X0.825000X0.150000X-0.825000X0.150000X0*%
%ADD40RoundRect,0.150000X-0.875000X-0.150000X0.875000X-0.150000X0.875000X0.150000X-0.875000X0.150000X0*%
%ADD41RoundRect,0.250000X-1.500000X-0.550000X1.500000X-0.550000X1.500000X0.550000X-1.500000X0.550000X0*%
%ADD42RoundRect,0.150000X0.725000X0.150000X-0.725000X0.150000X-0.725000X-0.150000X0.725000X-0.150000X0*%
%ADD43RoundRect,0.250000X-1.100000X0.412500X-1.100000X-0.412500X1.100000X-0.412500X1.100000X0.412500X0*%
%ADD44RoundRect,0.250000X-0.700000X1.825000X-0.700000X-1.825000X0.700000X-1.825000X0.700000X1.825000X0*%
%ADD45R,1.160000X0.600000*%
%ADD46R,1.160000X0.300000*%
%ADD47R,1.100000X0.250000*%
%ADD48R,2.000000X1.500000*%
%ADD49R,2.000000X3.800000*%
%ADD50RoundRect,0.250000X-0.412500X-0.650000X0.412500X-0.650000X0.412500X0.650000X-0.412500X0.650000X0*%
%ADD51RoundRect,0.150000X-0.725000X-0.150000X0.725000X-0.150000X0.725000X0.150000X-0.725000X0.150000X0*%
%ADD52R,1.200000X0.900000*%
%ADD53RoundRect,0.250000X0.650000X-0.412500X0.650000X0.412500X-0.650000X0.412500X-0.650000X-0.412500X0*%
%ADD54RoundRect,0.250000X-1.000000X1.750000X-1.000000X-1.750000X1.000000X-1.750000X1.000000X1.750000X0*%
%ADD55RoundRect,0.250000X0.450000X-0.325000X0.450000X0.325000X-0.450000X0.325000X-0.450000X-0.325000X0*%
%ADD56R,0.900000X2.000000*%
%ADD57R,2.000000X0.900000*%
%ADD58R,5.000000X5.000000*%
%ADD59R,1.600000X0.700000*%
%ADD60R,1.500000X1.600000*%
%ADD61R,1.500000X1.200000*%
%ADD62R,2.200000X1.200000*%
G04 APERTURE END LIST*
D10*
X176166501Y-61560001D02*
X176041500Y-61560001D01*
X176041500Y-61560001D02*
X175991500Y-61510001D01*
X175991500Y-61510001D02*
X175991500Y-60909999D01*
X175991500Y-60909999D02*
X176041500Y-60860000D01*
X176041500Y-60860000D02*
X176516501Y-60860000D01*
X176516501Y-60860000D02*
X176566500Y-60909999D01*
X176566500Y-60909999D02*
X176566500Y-61159999D01*
X176566500Y-61159999D02*
X176516501Y-61209999D01*
X176516501Y-61209999D02*
X176216501Y-61209999D01*
X176216501Y-61209999D02*
X176216499Y-61510001D01*
X176216499Y-61510001D02*
X176166501Y-61560001D01*
G36*
X176566500Y-60909999D02*
G01*
X176566500Y-61159999D01*
X176516501Y-61209999D01*
X176216501Y-61209999D01*
X176216499Y-61510001D01*
X176166501Y-61560001D01*
X176041500Y-61560001D01*
X175991500Y-61510001D01*
X175991500Y-60909999D01*
X176041500Y-60860000D01*
X176516501Y-60860000D01*
X176566500Y-60909999D01*
G37*
X176566500Y-60909999D02*
X176566500Y-61159999D01*
X176516501Y-61209999D01*
X176216501Y-61209999D01*
X176216499Y-61510001D01*
X176166501Y-61560001D01*
X176041500Y-61560001D01*
X175991500Y-61510001D01*
X175991500Y-60909999D01*
X176041500Y-60860000D01*
X176516501Y-60860000D01*
X176566500Y-60909999D01*
X173192499Y-57159999D02*
X173192499Y-57160002D01*
X173192499Y-57160002D02*
X173242501Y-57209999D01*
X173242501Y-57209999D02*
X173242501Y-57884999D01*
X173242501Y-57884999D02*
X173192499Y-57934999D01*
X173192499Y-57934999D02*
X172717501Y-57935002D01*
X172717501Y-57935002D02*
X172667501Y-57884999D01*
X172667501Y-57884999D02*
X172667499Y-57585000D01*
X172667499Y-57585000D02*
X172717501Y-57535000D01*
X172717501Y-57535000D02*
X173017501Y-57535000D01*
X173017501Y-57535000D02*
X173017501Y-57209999D01*
X173017501Y-57209999D02*
X173067501Y-57159999D01*
X173067501Y-57159999D02*
X173192499Y-57159999D01*
G36*
X173192499Y-57160002D02*
G01*
X173242501Y-57209999D01*
X173242501Y-57884999D01*
X173192499Y-57934999D01*
X172717501Y-57935002D01*
X172667501Y-57884999D01*
X172667499Y-57585000D01*
X172717501Y-57535000D01*
X173017501Y-57535000D01*
X173017501Y-57209999D01*
X173067501Y-57159999D01*
X173192499Y-57159999D01*
X173192499Y-57160002D01*
G37*
X173192499Y-57160002D02*
X173242501Y-57209999D01*
X173242501Y-57884999D01*
X173192499Y-57934999D01*
X172717501Y-57935002D01*
X172667501Y-57884999D01*
X172667499Y-57585000D01*
X172717501Y-57535000D01*
X173017501Y-57535000D01*
X173017501Y-57209999D01*
X173067501Y-57159999D01*
X173192499Y-57159999D01*
X173192499Y-57160002D01*
X176166501Y-57159999D02*
X176216499Y-57209999D01*
X176216499Y-57209999D02*
X176216501Y-57510001D01*
X176216501Y-57510001D02*
X176516501Y-57510001D01*
X176516501Y-57510001D02*
X176566500Y-57560001D01*
X176566500Y-57560001D02*
X176566500Y-57810001D01*
X176566500Y-57810001D02*
X176516501Y-57860000D01*
X176516501Y-57860000D02*
X176041500Y-57860000D01*
X176041500Y-57860000D02*
X175991500Y-57810001D01*
X175991500Y-57810001D02*
X175991498Y-57209999D01*
X175991498Y-57209999D02*
X176041500Y-57159999D01*
X176041500Y-57159999D02*
X176166501Y-57159999D01*
G36*
X176216499Y-57209999D02*
G01*
X176216501Y-57510001D01*
X176516501Y-57510001D01*
X176566500Y-57560001D01*
X176566500Y-57810001D01*
X176516501Y-57860000D01*
X176041500Y-57860000D01*
X175991500Y-57810001D01*
X175991498Y-57209999D01*
X176041500Y-57159999D01*
X176166501Y-57159999D01*
X176216499Y-57209999D01*
G37*
X176216499Y-57209999D02*
X176216501Y-57510001D01*
X176516501Y-57510001D01*
X176566500Y-57560001D01*
X176566500Y-57810001D01*
X176516501Y-57860000D01*
X176041500Y-57860000D01*
X175991500Y-57810001D01*
X175991498Y-57209999D01*
X176041500Y-57159999D01*
X176166501Y-57159999D01*
X176216499Y-57209999D01*
X173192499Y-61560001D02*
X173067501Y-61560001D01*
X173067501Y-61560001D02*
X173017501Y-61510001D01*
X173017501Y-61510001D02*
X173017501Y-61185000D01*
X173017501Y-61185000D02*
X172717501Y-61185000D01*
X172717501Y-61185000D02*
X172667499Y-61135000D01*
X172667499Y-61135000D02*
X172667501Y-60835001D01*
X172667501Y-60835001D02*
X172717501Y-60785001D01*
X172717501Y-60785001D02*
X173192499Y-60785001D01*
X173192499Y-60785001D02*
X173242499Y-60835001D01*
X173242499Y-60835001D02*
X173242499Y-61510001D01*
X173242499Y-61510001D02*
X173192499Y-61560001D01*
G36*
X173242499Y-60835001D02*
G01*
X173242499Y-61510001D01*
X173192499Y-61560001D01*
X173067501Y-61560001D01*
X173017501Y-61510001D01*
X173017501Y-61185000D01*
X172717501Y-61185000D01*
X172667499Y-61135000D01*
X172667501Y-60835001D01*
X172717501Y-60785001D01*
X173192499Y-60785001D01*
X173242499Y-60835001D01*
G37*
X173242499Y-60835001D02*
X173242499Y-61510001D01*
X173192499Y-61560001D01*
X173067501Y-61560001D01*
X173017501Y-61510001D01*
X173017501Y-61185000D01*
X172717501Y-61185000D01*
X172667499Y-61135000D01*
X172667501Y-60835001D01*
X172717501Y-60785001D01*
X173192499Y-60785001D01*
X173242499Y-60835001D01*
D11*
X162825000Y-155375000D03*
X162825000Y-153375000D03*
D12*
X102875000Y-81900000D03*
X102875000Y-79825000D03*
D13*
X171950000Y-127425000D03*
X171950000Y-129425000D03*
D14*
X170080000Y-127525000D03*
X168080000Y-127525000D03*
D15*
X173490000Y-149445000D03*
X173490000Y-150395000D03*
X173490000Y-151345000D03*
X175990000Y-151345000D03*
X175990000Y-150395000D03*
X175990000Y-149445000D03*
D16*
X113487500Y-99100000D03*
X113487500Y-101000000D03*
X115362500Y-100050000D03*
D17*
X184560000Y-129145000D03*
X186560000Y-129145000D03*
D18*
X80637500Y-70600000D03*
X77512500Y-70600000D03*
D19*
X77475000Y-74950000D03*
X77475000Y-75900000D03*
X77475000Y-76850000D03*
X79750000Y-76850000D03*
X79750000Y-75900000D03*
X79750000Y-74950000D03*
D16*
X169952500Y-142395000D03*
X169952500Y-144295000D03*
X171827500Y-143345000D03*
D20*
X181950000Y-146055000D03*
X188050000Y-146055000D03*
D13*
X159650000Y-145000000D03*
X159650000Y-147000000D03*
D21*
X173992500Y-79585000D03*
X176067500Y-79585000D03*
D13*
X91100000Y-130675000D03*
X91100000Y-132675000D03*
X182437500Y-50500000D03*
X182437500Y-52500000D03*
D22*
X80575000Y-72975000D03*
X77275000Y-72975000D03*
D23*
X162162500Y-105187500D03*
X164062500Y-105187500D03*
X163112500Y-103312500D03*
D24*
X167550000Y-146137500D03*
X167550000Y-148212500D03*
X169600000Y-157175000D03*
X169600000Y-159250000D03*
D25*
X100025000Y-58712500D03*
X100025000Y-61837500D03*
D17*
X158387500Y-105575000D03*
X160387500Y-105575000D03*
D11*
X182937500Y-99350000D03*
X182937500Y-97350000D03*
D14*
X182987500Y-90950000D03*
X180987500Y-90950000D03*
D20*
X181950000Y-157935000D03*
X188050000Y-157935000D03*
D16*
X177982500Y-149450000D03*
X177982500Y-151350000D03*
X179857500Y-150400000D03*
D26*
X178412500Y-48600000D03*
X176337500Y-48600000D03*
D14*
X182790000Y-129145000D03*
X180790000Y-129145000D03*
D17*
X184620000Y-112195000D03*
X186620000Y-112195000D03*
D11*
X180437500Y-52500000D03*
X180437500Y-50500000D03*
D14*
X168087500Y-121500000D03*
X166087500Y-121500000D03*
D24*
X171337500Y-53825000D03*
X171337500Y-55900000D03*
D11*
X157625000Y-150525000D03*
X157625000Y-148525000D03*
X162825000Y-151550000D03*
X162825000Y-149550000D03*
D23*
X154662500Y-138525000D03*
X156562500Y-138525000D03*
X155612500Y-136650000D03*
D27*
X98937500Y-75100000D03*
X93337500Y-75100000D03*
D17*
X79150000Y-78625000D03*
X81150000Y-78625000D03*
D12*
X171217500Y-63812500D03*
X171217500Y-61737500D03*
D20*
X188687500Y-57700000D03*
X194787500Y-57700000D03*
D17*
X177137500Y-88500000D03*
X179137500Y-88500000D03*
D16*
X113475000Y-102625000D03*
X113475000Y-104525000D03*
X115350000Y-103575000D03*
D14*
X81550000Y-80825000D03*
X79550000Y-80825000D03*
D11*
X178337500Y-126800000D03*
X178337500Y-124800000D03*
D28*
X73100000Y-71100000D03*
X73100000Y-76600000D03*
D15*
X173490000Y-145875000D03*
X173490000Y-146825000D03*
X173490000Y-147775000D03*
X175990000Y-147775000D03*
X175990000Y-146825000D03*
X175990000Y-145875000D03*
D26*
X174212500Y-109050000D03*
X172137500Y-109050000D03*
D29*
X173062812Y-61020939D03*
D30*
X173617499Y-61259999D03*
D31*
X174117501Y-61197500D03*
X174617500Y-61197500D03*
X175117499Y-61197500D03*
D30*
X175617501Y-61259999D03*
D32*
X176171188Y-61020939D03*
D33*
X176255000Y-60484999D03*
X176255000Y-59985000D03*
X176255000Y-59485001D03*
X176255000Y-58735000D03*
X176255000Y-58235001D03*
D34*
X176422749Y-57716249D03*
D30*
X175617501Y-57460001D03*
D31*
X175117499Y-57522500D03*
X174617500Y-57522500D03*
X174117501Y-57522500D03*
D30*
X173617499Y-57460001D03*
D35*
X173026876Y-57719376D03*
D36*
X173004999Y-58310000D03*
D37*
X172967501Y-59110000D03*
X172967501Y-59610000D03*
D36*
X173004999Y-60410000D03*
D38*
X174617500Y-59985000D03*
X174617500Y-59360000D03*
X174617500Y-58735000D03*
D20*
X173860000Y-143145000D03*
X179960000Y-143145000D03*
D17*
X88475000Y-95900000D03*
X90475000Y-95900000D03*
D25*
X186437500Y-57800000D03*
X186437500Y-60925000D03*
D39*
X101162500Y-98480000D03*
X101162500Y-99750000D03*
X101162500Y-101020000D03*
X101162500Y-102290000D03*
X101162500Y-103560000D03*
X101162500Y-104830000D03*
X101162500Y-106100000D03*
X101162500Y-107370000D03*
X106112500Y-107370000D03*
X106112500Y-106100000D03*
X106112500Y-104830000D03*
X106112500Y-103560000D03*
X106112500Y-102290000D03*
X106112500Y-101020000D03*
X106112500Y-99750000D03*
X106112500Y-98480000D03*
D40*
X108150000Y-146055000D03*
X108150000Y-147325000D03*
X108150000Y-148595000D03*
X108150000Y-149865000D03*
X108150000Y-151135000D03*
X108150000Y-152405000D03*
X108150000Y-153675000D03*
X108150000Y-154945000D03*
X117450000Y-154945000D03*
X117450000Y-153675000D03*
X117450000Y-152405000D03*
X117450000Y-151135000D03*
X117450000Y-149865000D03*
X117450000Y-148595000D03*
X117450000Y-147325000D03*
X117450000Y-146055000D03*
D11*
X171625000Y-157625000D03*
X171625000Y-155625000D03*
D13*
X163700000Y-143350000D03*
X163700000Y-145350000D03*
D14*
X172975000Y-69200000D03*
X170975000Y-69200000D03*
D13*
X170487500Y-115800000D03*
X170487500Y-117800000D03*
D12*
X98812500Y-101312500D03*
X98812500Y-99237500D03*
D13*
X164825000Y-153375000D03*
X164825000Y-155375000D03*
D23*
X162112500Y-112706250D03*
X164012500Y-112706250D03*
X163062500Y-110831250D03*
D17*
X180937500Y-95400000D03*
X182937500Y-95400000D03*
X88462500Y-87325000D03*
X90462500Y-87325000D03*
D15*
X165560000Y-142395000D03*
X165560000Y-143345000D03*
X165560000Y-144295000D03*
X168060000Y-144295000D03*
X168060000Y-143345000D03*
X168060000Y-142395000D03*
D14*
X164187500Y-107425000D03*
X162187500Y-107425000D03*
D41*
X188850000Y-93525000D03*
X194450000Y-93525000D03*
D22*
X157137500Y-103300000D03*
X160437500Y-103300000D03*
D17*
X153975000Y-143125000D03*
X155975000Y-143125000D03*
D20*
X181950000Y-153985000D03*
X188050000Y-153985000D03*
D18*
X110325000Y-82875000D03*
X107200000Y-82875000D03*
D17*
X180937500Y-93250000D03*
X182937500Y-93250000D03*
D42*
X175662500Y-123455000D03*
X175662500Y-122185000D03*
X175662500Y-120915000D03*
X175662500Y-119645000D03*
X170512500Y-119645000D03*
X170512500Y-120915000D03*
X170512500Y-122185000D03*
X170512500Y-123455000D03*
D14*
X168662500Y-140600000D03*
X166662500Y-140600000D03*
D43*
X183537500Y-57837500D03*
X183537500Y-60962500D03*
D44*
X116790000Y-55620000D03*
X116790000Y-62570000D03*
D22*
X149812500Y-136650000D03*
X153112500Y-136650000D03*
D12*
X176437500Y-52600000D03*
X176437500Y-50525000D03*
D15*
X173500000Y-156985000D03*
X173500000Y-157935000D03*
X173500000Y-158885000D03*
X176000000Y-158885000D03*
X176000000Y-157935000D03*
X176000000Y-156985000D03*
D45*
X76260000Y-148975000D03*
X76260000Y-149775000D03*
D46*
X76260000Y-150925000D03*
X76260000Y-151925000D03*
X76260000Y-152425000D03*
X76260000Y-153425000D03*
D45*
X76260000Y-154575000D03*
X76260000Y-155375000D03*
X76260000Y-155375000D03*
X76260000Y-154575000D03*
D46*
X76260000Y-153925000D03*
X76260000Y-152925000D03*
X76260000Y-151425000D03*
X76260000Y-150425000D03*
D45*
X76260000Y-149775000D03*
X76260000Y-148975000D03*
D23*
X166712500Y-138500000D03*
X168612500Y-138500000D03*
X167662500Y-136625000D03*
D11*
X98837500Y-107150000D03*
X98837500Y-105150000D03*
D18*
X174442500Y-51635000D03*
X171317500Y-51635000D03*
D14*
X164187500Y-114943750D03*
X162187500Y-114943750D03*
D47*
X172037500Y-111300000D03*
X172037500Y-111800000D03*
X172037500Y-112300000D03*
X172037500Y-112800000D03*
X172037500Y-113300000D03*
X176337500Y-113300000D03*
X176337500Y-112800000D03*
X176337500Y-112300000D03*
X176337500Y-111800000D03*
X176337500Y-111300000D03*
D11*
X90075000Y-104375000D03*
X90075000Y-102375000D03*
D14*
X134100000Y-49135000D03*
X132100000Y-49135000D03*
D11*
X92362500Y-89225000D03*
X92362500Y-87225000D03*
D17*
X79225000Y-151200000D03*
X81225000Y-151200000D03*
D20*
X206937500Y-129100000D03*
X213037500Y-129100000D03*
D11*
X162825000Y-159175000D03*
X162825000Y-157175000D03*
D13*
X111037500Y-100275000D03*
X111037500Y-102275000D03*
X164825000Y-149550000D03*
X164825000Y-151550000D03*
X178337500Y-116600000D03*
X178337500Y-118600000D03*
D17*
X88487500Y-91900000D03*
X90487500Y-91900000D03*
D48*
X108687500Y-77450000D03*
D49*
X102387500Y-75150000D03*
D48*
X108687500Y-75150000D03*
X108687500Y-72850000D03*
D17*
X150812500Y-140600000D03*
X152812500Y-140600000D03*
D14*
X128670000Y-158925000D03*
X126670000Y-158925000D03*
D17*
X178337500Y-120600000D03*
X180337500Y-120600000D03*
D16*
X177985000Y-156985000D03*
X177985000Y-158885000D03*
X179860000Y-157935000D03*
D14*
X98937500Y-103200000D03*
X96937500Y-103200000D03*
D25*
X82525000Y-72975000D03*
X82525000Y-76100000D03*
D11*
X184437500Y-52500000D03*
X184437500Y-50500000D03*
D14*
X168087500Y-119400000D03*
X166087500Y-119400000D03*
X85325000Y-80825000D03*
X83325000Y-80825000D03*
D11*
X175737500Y-67700000D03*
X175737500Y-65700000D03*
D17*
X176087500Y-96650000D03*
X178087500Y-96650000D03*
X180850000Y-112185000D03*
X182850000Y-112185000D03*
D50*
X77175000Y-126800000D03*
X80300000Y-126800000D03*
D24*
X169600000Y-153337500D03*
X169600000Y-155412500D03*
D26*
X95400000Y-54575000D03*
X93325000Y-54575000D03*
D24*
X84975000Y-71787500D03*
X84975000Y-73862500D03*
D17*
X85862500Y-133075000D03*
X87862500Y-133075000D03*
D14*
X119330000Y-156945000D03*
X117330000Y-156945000D03*
D17*
X169725000Y-146075000D03*
X171725000Y-146075000D03*
X75375000Y-78625000D03*
X77375000Y-78625000D03*
D14*
X100937500Y-81775000D03*
X98937500Y-81775000D03*
D25*
X180637500Y-57775000D03*
X180637500Y-60900000D03*
D17*
X88462500Y-89300000D03*
X90462500Y-89300000D03*
D51*
X172662500Y-82145000D03*
X172662500Y-83415000D03*
X172662500Y-84685000D03*
X172662500Y-85955000D03*
X177812500Y-85955000D03*
X177812500Y-84685000D03*
X177812500Y-83415000D03*
X177812500Y-82145000D03*
D20*
X181950000Y-150035000D03*
X188050000Y-150035000D03*
D14*
X98925000Y-109375000D03*
X96925000Y-109375000D03*
D17*
X79225000Y-153200000D03*
X81225000Y-153200000D03*
D21*
X84125000Y-130000000D03*
X86200000Y-130000000D03*
D24*
X161650000Y-143325000D03*
X161650000Y-145400000D03*
D17*
X157750000Y-143125000D03*
X159750000Y-143125000D03*
D52*
X164687500Y-133250000D03*
X164687500Y-136550000D03*
D17*
X88487500Y-93900000D03*
X90487500Y-93900000D03*
X162762500Y-140600000D03*
X164762500Y-140600000D03*
D14*
X82300000Y-130000000D03*
X80300000Y-130000000D03*
D11*
X108612500Y-102275000D03*
X108612500Y-100275000D03*
D53*
X84975000Y-78837500D03*
X84975000Y-75712500D03*
D16*
X177985000Y-153035000D03*
X177985000Y-154935000D03*
X179860000Y-153985000D03*
X177987500Y-145875000D03*
X177987500Y-147775000D03*
X179862500Y-146825000D03*
D42*
X177812500Y-94505000D03*
X177812500Y-93235000D03*
X177812500Y-91965000D03*
X177812500Y-90695000D03*
X172662500Y-90695000D03*
X172662500Y-91965000D03*
X172662500Y-93235000D03*
X172662500Y-94505000D03*
D54*
X106917500Y-57135000D03*
X106917500Y-65135000D03*
D20*
X206937500Y-113800000D03*
X213037500Y-113800000D03*
D55*
X171625000Y-153875000D03*
X171625000Y-151825000D03*
D17*
X178337500Y-122800000D03*
X180337500Y-122800000D03*
D56*
X77182500Y-123600000D03*
X78452500Y-123600000D03*
X79722500Y-123600000D03*
X80992500Y-123600000D03*
X82262500Y-123600000D03*
X83532500Y-123600000D03*
X84802500Y-123600000D03*
X86072500Y-123600000D03*
X87342500Y-123600000D03*
X88612500Y-123600000D03*
X89882500Y-123600000D03*
X91152500Y-123600000D03*
X92422500Y-123600000D03*
X93692500Y-123600000D03*
D57*
X94692500Y-120815000D03*
X94692500Y-119545000D03*
X94692500Y-118275000D03*
X94692500Y-117005000D03*
X94692500Y-115735000D03*
X94692500Y-114465000D03*
X94692500Y-113195000D03*
X94692500Y-111925000D03*
X94692500Y-110655000D03*
X94692500Y-109385000D03*
D56*
X93692500Y-106600000D03*
X92422500Y-106600000D03*
X91152500Y-106600000D03*
X89882500Y-106600000D03*
X88612500Y-106600000D03*
X87342500Y-106600000D03*
X86072500Y-106600000D03*
X84802500Y-106600000D03*
X83532500Y-106600000D03*
X82262500Y-106600000D03*
X80992500Y-106600000D03*
X79722500Y-106600000D03*
X78452500Y-106600000D03*
X77182500Y-106600000D03*
D58*
X84682500Y-116100000D03*
D26*
X177712500Y-69700000D03*
X175637500Y-69700000D03*
D17*
X158362500Y-113075000D03*
X160362500Y-113075000D03*
D14*
X182937500Y-88500000D03*
X180937500Y-88500000D03*
X156662500Y-140600000D03*
X154662500Y-140600000D03*
D15*
X173490000Y-153035000D03*
X173490000Y-153985000D03*
X173490000Y-154935000D03*
X175990000Y-154935000D03*
X175990000Y-153985000D03*
X175990000Y-153035000D03*
D11*
X168087500Y-125650000D03*
X168087500Y-123650000D03*
D13*
X164825000Y-157175000D03*
X164825000Y-159175000D03*
D17*
X178337500Y-63500000D03*
X180337500Y-63500000D03*
X162775000Y-147650000D03*
X164775000Y-147650000D03*
D22*
X157137500Y-110843750D03*
X160437500Y-110843750D03*
D11*
X171625000Y-150075000D03*
X171625000Y-148075000D03*
X178437500Y-52600000D03*
X178437500Y-50600000D03*
D17*
X176420000Y-130655000D03*
X178420000Y-130655000D03*
D13*
X134000000Y-67175000D03*
X134000000Y-69175000D03*
D59*
X84812500Y-93625000D03*
X84812500Y-92525000D03*
X84812500Y-91425000D03*
X84812500Y-90325000D03*
X84812500Y-89225000D03*
X84812500Y-88125000D03*
X84812500Y-87025000D03*
X84812500Y-85925000D03*
X84812500Y-84825000D03*
D60*
X83812500Y-98225000D03*
D61*
X83812500Y-83625000D03*
D62*
X74212500Y-83625000D03*
X74212500Y-99125000D03*
D24*
X169600000Y-149487500D03*
X169600000Y-151562500D03*
D17*
X176420000Y-128685000D03*
X178420000Y-128685000D03*
M02*
